<?xml version="1.0" encoding="UTF-8"?>
<svg version="1.1" xmlns="http://www.w3.org/2000/svg" width="1024" height="1024">
<path d="M0 0 C337.92 0 675.84 0 1024 0 C1024 337.92 1024 675.84 1024 1024 C686.08 1024 348.16 1024 0 1024 C0 686.08 0 348.16 0 0 Z " fill="#FEFEFE" transform="translate(0,0)"/>
<path d="M0 0 C0.76441406 0.15484863 1.52882813 0.30969727 2.31640625 0.46923828 C47.4470818 9.85068396 89.1446596 37.72735306 116 75 C116.42087891 75.58185059 116.84175781 76.16370117 117.27539062 76.76318359 C139.71112148 108.16803726 151.49632981 144.502476 151.3125 183.0625 C151.31034485 183.87736877 151.3081897 184.69223755 151.30596924 185.53179932 C151.25218055 198.22686217 150.74106461 210.56054145 148 223 C147.70198486 224.36970947 147.70198486 224.36970947 147.39794922 225.76708984 C137.34736218 270.49408431 111.46704556 311.01712423 75 339 C74.08347656 339.70640625 73.16695312 340.4128125 72.22265625 341.140625 C41.70573525 363.43682483 3.57555621 375.53339013 -34 377 C-33.97905273 377.64960693 -33.95810547 378.29921387 -33.93652344 378.96850586 C-33.85254417 381.95800833 -33.801084 384.94726158 -33.75 387.9375 C-33.71648437 388.95908203 -33.68296875 389.98066406 -33.6484375 391.03320312 C-33.52178286 400.94392905 -36.24095715 407.92655824 -43.03125 415.1484375 C-53.54966427 425.04075568 -65.55016801 426.46162003 -79.53955078 426.37231445 C-80.8353154 426.37596512 -82.13108002 426.37961578 -83.46611023 426.38337708 C-86.97998658 426.39268336 -90.49357945 426.38345351 -94.00743341 426.37004495 C-97.69667704 426.35863987 -101.38590857 426.36284428 -105.07516479 426.36479187 C-111.25653669 426.3656709 -117.43779807 426.3546676 -123.61914062 426.33618164 C-130.76757688 426.31492613 -137.91585252 426.31152626 -145.06431401 426.3177436 C-151.95533121 426.32342989 -158.84629184 426.31780634 -165.73730087 426.30657005 C-168.66629964 426.30192384 -171.59526383 426.30105017 -174.52426529 426.3031559 C-178.60106136 426.30538271 -182.67763051 426.29095877 -186.75439453 426.2746582 C-187.97199966 426.27713562 -189.1896048 426.27961304 -190.44410706 426.28216553 C-191.54859695 426.27508072 -192.65308685 426.26799591 -193.79104614 426.26069641 C-194.75440447 426.25864354 -195.71776279 426.25659067 -196.7103138 426.25447559 C-199 426 -199 426 -201 424 C-200.41992188 423.52691406 -199.83984375 423.05382812 -199.2421875 422.56640625 C-198.46101562 421.90511719 -197.67984375 421.24382812 -196.875 420.5625 C-196.10929688 419.92441406 -195.34359375 419.28632812 -194.5546875 418.62890625 C-191.99562712 416.24583016 -191.99562712 416.24583016 -190.85445213 413.80765152 C-187.52110573 407.49300313 -187.52110573 407.49300313 -183.51433182 406.19437408 C-180.36038375 405.92558653 -177.31840957 405.94362273 -174.15478516 406.05761719 C-172.96707016 406.06433441 -171.77935516 406.07105164 -170.5556488 406.07797241 C-167.30815062 406.10424504 -164.06428426 406.1701027 -160.81781054 406.25211239 C-157.41192892 406.32726029 -154.00576952 406.34697762 -150.59921265 406.37139893 C-143.41067367 406.43123819 -136.22381418 406.54640701 -129.03619385 406.67346191 C-118.22464216 406.86386211 -107.41251998 407.00707972 -96.59973943 407.10440946 C-93.21313084 407.13657957 -89.8275521 407.18113872 -86.44154739 407.25356293 C-82.66234079 407.33236744 -78.88375635 407.38125035 -75.10400391 407.42480469 C-73.99205154 407.45692047 -72.88009918 407.48903625 -71.73445129 407.52212524 C-64.91565973 407.56244316 -60.19053114 406.61455519 -55 402 C-50.67675378 396.84274868 -50.3595211 391.60887458 -50.25 385.0625 C-50.22035156 384.18787109 -50.19070313 383.31324219 -50.16015625 382.41210938 C-50.09009434 380.27522123 -50.04270949 378.13760977 -50 376 C-50.8979126 376.02936646 -50.8979126 376.02936646 -51.81396484 376.05932617 C-58.2708073 376.17746201 -64.28907518 375.51648964 -70.625 374.3125 C-71.582854 374.13315918 -72.54070801 373.95381836 -73.52758789 373.76904297 C-81.93131247 372.1300112 -89.94740355 369.8904583 -98 367 C-99.20398438 366.57074219 -100.40796875 366.14148438 -101.6484375 365.69921875 C-117.7281729 359.61360461 -132.38523085 351.22866212 -146.31103516 341.20019531 C-148.83517544 339.40651598 -151.41394612 337.7029145 -154 336 C-154.6290625 336.64066406 -155.258125 337.28132813 -155.90625 337.94140625 C-156.7621875 338.80636719 -157.618125 339.67132813 -158.5 340.5625 C-159.3353125 341.40941406 -160.170625 342.25632812 -161.03125 343.12890625 C-163.20344297 345.27771798 -165.46413053 347.2860692 -167.78125 349.27734375 C-172.4170784 353.29539001 -176.70091084 357.62754755 -181 362 C-185.89671122 366.98027284 -190.83119716 371.79867983 -196.12890625 376.3515625 C-199.0579209 378.93203052 -201.77517153 381.7072207 -204.5 384.5 C-207.73760116 387.81833935 -210.99456732 391.02996869 -214.52734375 394.03515625 C-220.36031473 399.07811489 -225.74192568 404.59306342 -231.18188477 410.05151367 C-233.05829475 411.93328274 -234.93998969 413.80964738 -236.82226562 415.68554688 C-242.26876833 421.12934432 -247.65726024 426.5624505 -252.65014648 432.43188477 C-255.12394972 435.3056844 -257.87475989 437.89342378 -260.59375 440.53125 C-263.21910589 443.22479696 -265.66655434 446.03678202 -268.13085938 448.87695312 C-271.7768984 453.01827436 -275.60052835 456.99478457 -279.39453125 461 C-283.1346965 464.96473004 -286.77419907 468.99582969 -290.34765625 473.11132812 C-292.76347765 475.87267481 -295.251375 478.56371095 -297.75 481.25 C-298.79322341 482.37476385 -299.8361862 483.49976948 -300.87890625 484.625 C-301.39855957 485.18574219 -301.91821289 485.74648438 -302.45361328 486.32421875 C-304.41569431 488.4504777 -306.3611494 490.59152737 -308.30615234 492.73339844 C-310.52385048 495.16824129 -312.76235243 497.58347563 -315 500 C-315.78246094 500.86109375 -316.56492187 501.7221875 -317.37109375 502.609375 C-323.49509394 509.10484834 -329.06654572 513.0824928 -338.1875 513.4375 C-345.14347598 513.07308832 -348.66898959 510.55444054 -353.3125 505.5 C-356.87445569 501.4291935 -358.15024547 498.59918349 -358.25 493.1875 C-358.27578125 492.35605469 -358.3015625 491.52460937 -358.328125 490.66796875 C-357.49757847 483.91483447 -353.15408232 479.73629107 -348.52832031 475.20361328 C-347.54966507 474.22671036 -347.54966507 474.22671036 -346.55123901 473.23007202 C-344.40042854 471.08642745 -342.23929867 468.95350428 -340.078125 466.8203125 C-338.57387688 465.32420819 -337.07036825 463.82736003 -335.56756592 462.32980347 C-331.61139727 458.3907363 -327.6467521 454.46031788 -323.67980957 450.53210449 C-317.34315817 444.2546652 -311.01905167 437.96459599 -304.6957016 431.67376328 C-302.49449467 429.48642158 -300.28945914 427.30299999 -298.08380127 425.12014771 C-296.71886487 423.76524629 -295.35401272 422.41026 -293.98925781 421.05517578 C-293.38328766 420.45751404 -292.7773175 419.85985229 -292.15298462 419.24407959 C-288.46577228 415.57577306 -284.98918832 411.77794099 -281.60174847 407.83081722 C-279.01686603 404.87626637 -276.25259799 402.10957716 -273.47265625 399.33984375 C-272.88004501 398.74627579 -272.28743378 398.15270782 -271.67686462 397.54115295 C-270.43529878 396.29891292 -269.19249464 395.05790932 -267.94848633 393.81811523 C-266.06671726 391.94170525 -264.19035262 390.06001031 -262.31445312 388.17773438 C-256.90110282 382.76169341 -251.49829253 377.4084121 -245.66186523 372.44360352 C-242.96655626 370.10228399 -240.48869559 367.55706635 -238 365 C-234.9165629 361.83185309 -231.79441884 358.79398022 -228.42773438 355.92553711 C-223.40484724 351.54856644 -218.72662556 346.85190199 -214.03125 342.12890625 C-213.11033569 341.206577 -212.18942139 340.28424774 -211.24060059 339.33396912 C-208.81852446 336.90811523 -206.39946921 334.47927148 -203.9810791 332.04974365 C-201.50226163 329.56060884 -199.02053203 327.07438105 -196.5390625 324.58789062 C-191.68989076 319.72806542 -186.84391137 314.86506822 -182 310 C-182.6087648 309.18840424 -182.6087648 309.18840424 -183.22982788 308.3604126 C-183.7654837 307.64625183 -184.30113953 306.93209106 -184.85302734 306.19628906 C-185.38262054 305.49022522 -185.91221375 304.78416138 -186.45785522 304.05670166 C-219.89678593 259.46043197 -234.85661182 209.66383802 -227 154 C-226.84015625 152.7521875 -226.6803125 151.504375 -226.515625 150.21875 C-223.64983961 131.78477913 -217.09988187 113.01245718 -207.97509766 96.74121094 C-206.98211221 94.96805816 -206.02686685 93.17790892 -205.07421875 91.3828125 C-193.6051597 70.14456249 -176.0122218 51.7001715 -157 37 C-156.40703125 36.5359375 -155.8140625 36.071875 -155.203125 35.59375 C-145.87305065 28.31174075 -136.36417935 21.7231806 -126 16 C-125.3822168 15.65485352 -124.76443359 15.30970703 -124.12792969 14.95410156 C-86.74250952 -5.66499345 -41.22974472 -8.5946052 0 0 Z " fill="#2780FE" transform="translate(682,139)"/>
<path d="M0 0 C0.76441406 0.15484863 1.52882813 0.30969727 2.31640625 0.46923828 C47.4470818 9.85068396 89.1446596 37.72735306 116 75 C116.42087891 75.58185059 116.84175781 76.16370117 117.27539062 76.76318359 C139.71112148 108.16803726 151.49632981 144.502476 151.3125 183.0625 C151.31034485 183.87736877 151.3081897 184.69223755 151.30596924 185.53179932 C151.25218055 198.22686217 150.74106461 210.56054145 148 223 C147.70198486 224.36970947 147.70198486 224.36970947 147.39794922 225.76708984 C137.34736218 270.49408431 111.46704556 311.01712423 75 339 C74.08347656 339.70640625 73.16695312 340.4128125 72.22265625 341.140625 C41.70573525 363.43682483 3.57555621 375.53339013 -34 377 C-33.97905273 377.64960693 -33.95810547 378.29921387 -33.93652344 378.96850586 C-33.85254417 381.95800833 -33.801084 384.94726158 -33.75 387.9375 C-33.71648437 388.95908203 -33.68296875 389.98066406 -33.6484375 391.03320312 C-33.52178286 400.94392905 -36.24095715 407.92655824 -43.03125 415.1484375 C-53.54966427 425.04075568 -65.55016801 426.46162003 -79.53955078 426.37231445 C-80.8353154 426.37596512 -82.13108002 426.37961578 -83.46611023 426.38337708 C-86.97998658 426.39268336 -90.49357945 426.38345351 -94.00743341 426.37004495 C-97.69667704 426.35863987 -101.38590857 426.36284428 -105.07516479 426.36479187 C-111.25653669 426.3656709 -117.43779807 426.3546676 -123.61914062 426.33618164 C-130.76757688 426.31492613 -137.91585252 426.31152626 -145.06431401 426.3177436 C-151.95533121 426.32342989 -158.84629184 426.31780634 -165.73730087 426.30657005 C-168.66629964 426.30192384 -171.59526383 426.30105017 -174.52426529 426.3031559 C-178.60106136 426.30538271 -182.67763051 426.29095877 -186.75439453 426.2746582 C-187.97199966 426.27713562 -189.1896048 426.27961304 -190.44410706 426.28216553 C-191.54859695 426.27508072 -192.65308685 426.26799591 -193.79104614 426.26069641 C-194.75440447 426.25864354 -195.71776279 426.25659067 -196.7103138 426.25447559 C-199 426 -199 426 -201 424 C-200.41992188 423.52691406 -199.83984375 423.05382812 -199.2421875 422.56640625 C-198.46101562 421.90511719 -197.67984375 421.24382812 -196.875 420.5625 C-196.10929688 419.92441406 -195.34359375 419.28632812 -194.5546875 418.62890625 C-191.99562712 416.24583016 -191.99562712 416.24583016 -190.85445213 413.80765152 C-187.52110573 407.49300313 -187.52110573 407.49300313 -183.51433182 406.19437408 C-180.36038375 405.92558653 -177.31840957 405.94362273 -174.15478516 406.05761719 C-172.96707016 406.06433441 -171.77935516 406.07105164 -170.5556488 406.07797241 C-167.30815062 406.10424504 -164.06428426 406.1701027 -160.81781054 406.25211239 C-157.41192892 406.32726029 -154.00576952 406.34697762 -150.59921265 406.37139893 C-143.41067367 406.43123819 -136.22381418 406.54640701 -129.03619385 406.67346191 C-118.22464216 406.86386211 -107.41251998 407.00707972 -96.59973943 407.10440946 C-93.21313084 407.13657957 -89.8275521 407.18113872 -86.44154739 407.25356293 C-82.66234079 407.33236744 -78.88375635 407.38125035 -75.10400391 407.42480469 C-73.99205154 407.45692047 -72.88009918 407.48903625 -71.73445129 407.52212524 C-64.91565973 407.56244316 -60.19053114 406.61455519 -55 402 C-50.67675378 396.84274868 -50.3595211 391.60887458 -50.25 385.0625 C-50.22035156 384.18787109 -50.19070313 383.31324219 -50.16015625 382.41210938 C-50.09009434 380.27522123 -50.04270949 378.13760977 -50 376 C-50.8979126 376.02936646 -50.8979126 376.02936646 -51.81396484 376.05932617 C-58.2708073 376.17746201 -64.28907518 375.51648964 -70.625 374.3125 C-71.582854 374.13315918 -72.54070801 373.95381836 -73.52758789 373.76904297 C-81.93131247 372.1300112 -89.94740355 369.8904583 -98 367 C-99.20398438 366.57074219 -100.40796875 366.14148438 -101.6484375 365.69921875 C-117.7281729 359.61360461 -132.38523085 351.22866212 -146.31103516 341.20019531 C-148.83517544 339.40651598 -151.41394612 337.7029145 -154 336 C-154.6290625 336.64066406 -155.258125 337.28132813 -155.90625 337.94140625 C-156.7621875 338.80636719 -157.618125 339.67132813 -158.5 340.5625 C-159.3353125 341.40941406 -160.170625 342.25632812 -161.03125 343.12890625 C-163.20344297 345.27771798 -165.46413053 347.2860692 -167.78125 349.27734375 C-172.4170784 353.29539001 -176.70091084 357.62754755 -181 362 C-185.89671122 366.98027284 -190.83119716 371.79867983 -196.12890625 376.3515625 C-199.0579209 378.93203052 -201.77517153 381.7072207 -204.5 384.5 C-207.73760116 387.81833935 -210.99456732 391.02996869 -214.52734375 394.03515625 C-220.36031473 399.07811489 -225.74192568 404.59306342 -231.18188477 410.05151367 C-233.05829475 411.93328274 -234.93998969 413.80964738 -236.82226562 415.68554688 C-242.26876833 421.12934432 -247.65726024 426.5624505 -252.65014648 432.43188477 C-255.12394972 435.3056844 -257.87475989 437.89342378 -260.59375 440.53125 C-263.21910589 443.22479696 -265.66655434 446.03678202 -268.13085938 448.87695312 C-271.7768984 453.01827436 -275.60052835 456.99478457 -279.39453125 461 C-283.1346965 464.96473004 -286.77419907 468.99582969 -290.34765625 473.11132812 C-292.76347765 475.87267481 -295.251375 478.56371095 -297.75 481.25 C-298.79322341 482.37476385 -299.8361862 483.49976948 -300.87890625 484.625 C-301.39855957 485.18574219 -301.91821289 485.74648438 -302.45361328 486.32421875 C-304.41569431 488.4504777 -306.3611494 490.59152737 -308.30615234 492.73339844 C-310.52385048 495.16824129 -312.76235243 497.58347563 -315 500 C-315.78246094 500.86109375 -316.56492187 501.7221875 -317.37109375 502.609375 C-323.49509394 509.10484834 -329.06654572 513.0824928 -338.1875 513.4375 C-345.14347598 513.07308832 -348.66898959 510.55444054 -353.3125 505.5 C-356.87445569 501.4291935 -358.15024547 498.59918349 -358.25 493.1875 C-358.27578125 492.35605469 -358.3015625 491.52460937 -358.328125 490.66796875 C-357.49757847 483.91483447 -353.15408232 479.73629107 -348.52832031 475.20361328 C-347.54966507 474.22671036 -347.54966507 474.22671036 -346.55123901 473.23007202 C-344.40042854 471.08642745 -342.23929867 468.95350428 -340.078125 466.8203125 C-338.57387688 465.32420819 -337.07036825 463.82736003 -335.56756592 462.32980347 C-331.61139727 458.3907363 -327.6467521 454.46031788 -323.67980957 450.53210449 C-317.34315817 444.2546652 -311.01905167 437.96459599 -304.6957016 431.67376328 C-302.49449467 429.48642158 -300.28945914 427.30299999 -298.08380127 425.12014771 C-296.71886487 423.76524629 -295.35401272 422.41026 -293.98925781 421.05517578 C-293.38328766 420.45751404 -292.7773175 419.85985229 -292.15298462 419.24407959 C-288.46577228 415.57577306 -284.98918832 411.77794099 -281.60174847 407.83081722 C-279.01686603 404.87626637 -276.25259799 402.10957716 -273.47265625 399.33984375 C-272.88004501 398.74627579 -272.28743378 398.15270782 -271.67686462 397.54115295 C-270.43529878 396.29891292 -269.19249464 395.05790932 -267.94848633 393.81811523 C-266.06671726 391.94170525 -264.19035262 390.06001031 -262.31445312 388.17773438 C-256.90110282 382.76169341 -251.49829253 377.4084121 -245.66186523 372.44360352 C-242.96655626 370.10228399 -240.48869559 367.55706635 -238 365 C-234.9165629 361.83185309 -231.79441884 358.79398022 -228.42773438 355.92553711 C-223.40484724 351.54856644 -218.72662556 346.85190199 -214.03125 342.12890625 C-213.11033569 341.206577 -212.18942139 340.28424774 -211.24060059 339.33396912 C-208.81852446 336.90811523 -206.39946921 334.47927148 -203.9810791 332.04974365 C-201.50226163 329.56060884 -199.02053203 327.07438105 -196.5390625 324.58789062 C-191.68989076 319.72806542 -186.84391137 314.86506822 -182 310 C-182.6087648 309.18840424 -182.6087648 309.18840424 -183.22982788 308.3604126 C-183.7654837 307.64625183 -184.30113953 306.93209106 -184.85302734 306.19628906 C-185.38262054 305.49022522 -185.91221375 304.78416138 -186.45785522 304.05670166 C-219.89678593 259.46043197 -234.85661182 209.66383802 -227 154 C-226.84015625 152.7521875 -226.6803125 151.504375 -226.515625 150.21875 C-223.64983961 131.78477913 -217.09988187 113.01245718 -207.97509766 96.74121094 C-206.98211221 94.96805816 -206.02686685 93.17790892 -205.07421875 91.3828125 C-193.6051597 70.14456249 -176.0122218 51.7001715 -157 37 C-156.40703125 36.5359375 -155.8140625 36.071875 -155.203125 35.59375 C-145.87305065 28.31174075 -136.36417935 21.7231806 -126 16 C-125.3822168 15.65485352 -124.76443359 15.30970703 -124.12792969 14.95410156 C-86.74250952 -5.66499345 -41.22974472 -8.5946052 0 0 Z M-160.125 81.25 C-186.80392312 111.42360634 -200.44224745 153.94557635 -198 194 C-194.29112373 239.45813485 -176.35433786 275.55237912 -142.11962891 305.65332031 C-138.21210079 308.95566721 -134.15254767 312.01450821 -130 315 C-129.14752686 315.62696777 -129.14752686 315.62696777 -128.27783203 316.26660156 C-108.64778157 330.60000349 -85.26837134 340.49844097 -61 343 C-60.06800781 343.10957031 -59.13601563 343.21914063 -58.17578125 343.33203125 C-17.57145435 347.48663496 26.88544094 337.96515793 59 312 C62.99564677 308.59822444 66.81409594 305.0204262 70.58056641 301.36816406 C71.82129398 300.17225121 73.08647433 299.00181297 74.35546875 297.8359375 C103.58870067 270.2533981 118.5501471 228.96596233 120.22265625 189.4140625 C121.31456403 149.19122693 106.703447 108.26581494 79.1328125 78.7890625 C47.54386276 46.01657706 6.01803844 28.77294719 -39.21557617 27.71655273 C-85.92045834 27.22923305 -128.34096423 47.78007153 -160.125 81.25 Z " fill="#012055" transform="translate(682,139)"/>
<path d="M0 0 C0.82435547 0.0319043 1.64871094 0.06380859 2.49804688 0.09667969 C34.0277185 1.58296961 65.15170191 13.72687726 90 33 C91.28583984 33.97839844 91.28583984 33.97839844 92.59765625 34.9765625 C125.47871468 60.83589269 144.66196046 97.31106487 150.12670898 138.59594727 C151.21738484 147.76156188 151.47635377 156.78584321 151 166 C150.96277832 166.7204248 150.92555664 167.44084961 150.88720703 168.18310547 C148.44607785 207.67932369 131.1151445 242.85150395 104 271 C103.29875 271.76441406 102.5975 272.52882813 101.875 273.31640625 C74.87102355 301.90584344 34.56059676 314.88295819 -3.98828125 316.12890625 C-51.14744335 316.9894171 -89.5367047 298.50836462 -123.06884766 266.26806641 C-152.09884542 237.77578885 -166.37250337 199.36700225 -167.30249023 158.84985352 C-167.49024358 117.11823838 -151.76211749 76.29285266 -122.47607422 46.47998047 C-90.03262779 13.95067643 -45.60461474 -1.91826287 0 0 Z M-43 63 C-43.65097656 63.17160645 -44.30195312 63.34321289 -44.97265625 63.52001953 C-67.22161883 69.51630786 -88.31448122 80.25483434 -106 95 C-107.15100362 95.93494267 -108.30204639 96.86983715 -109.453125 97.8046875 C-125.48641608 111.00610159 -138.68534052 126.47774682 -149.125 144.4375 C-149.50366211 145.0754248 -149.88232422 145.71334961 -150.27246094 146.37060547 C-152.71930971 150.75007711 -154.32619079 154.91427634 -154 160 C-153.17901872 162.8143407 -151.92080558 165.2563734 -150.5 167.8125 C-149.94252075 168.86050781 -149.94252075 168.86050781 -149.3737793 169.9296875 C-148.2747456 171.96863791 -147.14474551 173.98643267 -146 176 C-145.45988281 176.96292969 -144.91976563 177.92585938 -144.36328125 178.91796875 C-120.40387088 218.81008525 -80.49034554 243.35895084 -36.28491211 254.52270508 C-30.45539769 255.74043141 -24.72756427 256.16819522 -18.78515625 256.203125 C-18.011754 256.20882507 -17.23835175 256.21452515 -16.44151306 256.22039795 C-14.80859725 256.22979862 -13.17566289 256.23636218 -11.54272461 256.24023438 C-9.10039013 256.24985081 -6.65893131 256.28088341 -4.21679688 256.3125 C10.49692444 256.4141521 23.85323286 254.17102079 37.8125 249.375 C38.82876465 249.02945068 39.8450293 248.68390137 40.89208984 248.32788086 C78.1015785 235.33164139 109.26376634 210.12586767 130 176.5625 C130.46921875 175.80509521 130.9384375 175.04769043 131.421875 174.26733398 C135.59705165 167.34836017 138.08254125 161.19512027 137 153 C136.07877985 150.25479128 134.75868079 147.90140358 133.25 145.4375 C132.65034424 144.41994629 132.65034424 144.41994629 132.03857422 143.38183594 C124.43646089 130.79762852 115.17492513 119.56626841 105 109 C104.4225 108.3709375 103.845 107.741875 103.25 107.09375 C78.96891812 81.35580321 39.03420675 61.17162459 3.54223633 59.87353516 C-0.61840343 59.79267603 -4.77617947 59.75340359 -8.9375 59.75 C-10.04640091 59.74898788 -10.04640091 59.74898788 -11.17770386 59.74795532 C-22.073955 59.76377034 -32.41824674 60.16071491 -43 63 Z " fill="#FDFDFE" transform="translate(651,167)"/>
<path d="M0 0 C11.9947489 8.76296676 20.00543092 20.66004926 24 35 C24 36.98 24 38.96 24 41 C55.35 41 86.7 41 119 41 C118.67 46.94 118.34 52.88 118 59 C86.98 59 55.96 59 24 59 C23.67 61.97 23.34 64.94 23 68 C22.15209961 70.58227539 22.15209961 70.58227539 21.15234375 72.59765625 C20.61577148 73.70463867 20.61577148 73.70463867 20.06835938 74.83398438 C19.50858398 75.93709961 19.50858398 75.93709961 18.9375 77.0625 C18.56044922 77.83271484 18.18339844 78.60292969 17.79492188 79.39648438 C16.87545066 81.27034343 15.93945112 83.13607761 15 85 C15.56074722 85.55852661 16.12149445 86.11705322 16.69923401 86.69250488 C22.01213312 91.98527415 27.32255233 97.28051391 32.63028049 102.57846832 C35.35838474 105.3013787 38.08740073 108.0233614 40.81860352 110.74316406 C43.45980293 113.37340927 46.09847235 116.00616925 48.73548698 118.64060974 C49.73639205 119.63968295 50.7381691 120.63788345 51.74087715 121.63514709 C56.85808151 126.72569679 61.8795448 131.83457713 66.55357361 137.33825684 C67.9717068 138.96749504 69.45504994 140.49141291 71 142 C74.66525453 140.45779968 77.00124788 138.24646163 79.796875 135.44604492 C80.49037048 134.75539696 80.49037048 134.75539696 81.19787598 134.05079651 C82.72017572 132.53219167 84.2351696 131.00652161 85.75 129.48046875 C86.81050716 128.41876856 87.87138527 127.35743877 88.93261719 126.29646301 C91.1548064 124.07271095 93.37360045 121.84564447 95.58984375 119.6159668 C98.42258845 116.76626381 101.26183948 113.92315606 104.10345459 111.08230114 C106.29484077 108.89064217 108.48360417 106.69637962 110.67150879 104.5012455 C111.71704802 103.45253649 112.76318307 102.40442112 113.80993652 101.35692406 C115.27685907 99.88781816 116.74043361 98.41545583 118.203125 96.94213867 C119.03489258 96.1065593 119.86666016 95.27097992 120.72363281 94.41007996 C122.96466606 92.03740944 125.00002687 89.57745317 127 87 C131.24325763 87.47470234 132.93227411 89.79898839 135.625 92.9375 C136.40101563 93.83339844 137.17703125 94.72929687 137.9765625 95.65234375 C138.64429688 96.42707031 139.31203125 97.20179688 140 98 C140.66 98.66 141.32 99.32 142 100 C123.52 118.48 105.04 136.96 86 156 C90.73268047 161.56537902 90.73268047 161.56537902 95.71044922 166.82397461 C96.37068085 167.48413071 97.03091248 168.1442868 97.71115112 168.82444763 C98.40201813 169.51015335 99.09288513 170.19585907 99.8046875 170.90234375 C100.5286673 171.6249086 101.25264709 172.34747345 101.99856567 173.0919342 C104.28835265 175.37616922 106.58160993 177.65688312 108.875 179.9375 C110.43773161 181.49521039 112.0002339 183.05315087 113.5625 184.61132812 C117.3723531 188.41021602 121.18505379 192.20622713 125 196 C124.47599609 197.53720703 124.47599609 197.53720703 123.94140625 199.10546875 C123.48160964 200.46609137 123.0219832 201.82677151 122.5625 203.1875 C122.33240234 203.86103516 122.10230469 204.53457031 121.86523438 205.22851562 C120.66475915 208.79514491 119.62722505 212.2871161 119 216 C115.81580579 214.62845314 114.02887404 213.13830017 111.875 210.4375 C109.79096366 207.78974334 109.79096366 207.78974334 107 206 C107 205.34 107 204.68 107 204 C106.4237085 203.7613623 105.84741699 203.52272461 105.25366211 203.27685547 C102.53006819 201.73375113 100.97717188 199.94715754 98.94140625 197.5703125 C93.84052931 191.75955742 88.42792533 186.31575551 82.9375 180.875 C81.96655904 179.90909319 80.99585477 178.94294838 80.02539062 177.9765625 C77.68589498 175.64870613 75.34407948 173.32323895 73 171 C69.51027997 172.49530324 67.26534605 174.49191662 64.59863281 177.17431641 C63.28983154 178.48348022 63.28983154 178.48348022 61.95458984 179.8190918 C61.04660645 180.73730713 60.13862305 181.65552246 59.203125 182.6015625 C58.36185059 183.44485107 57.52057617 184.28813965 56.65380859 185.15698242 C53.51372103 188.30753129 50.38238349 191.46679137 47.25 194.625 C40.2375 201.67875 33.225 208.7325 26 216 C72.035 216.495 72.035 216.495 119 217 C119.33 223.27 119.66 229.54 120 236 C88.32 236 56.64 236 24 236 C25.05965538 241.29827689 25.68278502 242.17670562 29.33618164 245.7902832 C30.2570607 246.71086014 31.17793976 247.63143707 32.12672424 248.57991028 C33.137656 249.57041727 34.14880513 250.56070245 35.16015625 251.55078125 C36.19092916 252.57409005 37.22081965 253.59828842 38.24986267 254.62333679 C40.95533364 257.31356487 43.67260169 259.99156242 46.39251709 262.66717529 C49.16800328 265.40167992 51.9321437 268.14760063 54.69726562 270.89257812 C60.1204805 276.27294587 65.55621103 281.64044133 71 287 C76.87385166 282.1350292 82.22731472 276.87169538 87.58203125 271.4453125 C89.41848887 269.59622413 91.25508129 267.74726964 93.09179688 265.8984375 C95.96918472 262.99723098 98.84400432 260.09349788 101.71655273 257.1875 C104.49983793 254.37241947 107.29096554 251.56517938 110.08203125 248.7578125 C110.94657425 247.87980988 111.81111725 247.00180725 112.70185852 246.09719849 C113.89901741 244.89497147 113.89901741 244.89497147 115.12036133 243.66845703 C115.82316727 242.95819366 116.52597321 242.2479303 117.25007629 241.5161438 C119 240 119 240 121 240 C121.98238408 242.41540306 122.96100218 244.83221822 123.9375 247.25 C124.21529297 247.93191406 124.49308594 248.61382812 124.77929688 249.31640625 C125.53944385 251.20303609 126.27078068 253.10120176 127 255 C127.43505859 255.9434729 127.43505859 255.9434729 127.87890625 256.90600586 C128 259 128 259 126.12915039 261.4543457 C125.21125732 262.35241943 124.29336426 263.25049316 123.34765625 264.17578125 C122.60823036 264.90815254 122.60823036 264.90815254 121.85386658 265.65531921 C120.26806914 267.21974493 118.66555173 268.76578017 117.0625 270.3125 C116.01649103 271.34199559 114.9715563 272.37258387 113.92773438 273.40429688 C108.9981996 278.25389614 103.98427426 282.97185737 98.73608398 287.4777832 C96.03607292 289.84518146 93.51495713 292.37649436 91 294.9375 C90.51144531 295.43056641 90.02289063 295.92363281 89.51953125 296.43164062 C88.34396475 297.61873229 87.17161174 298.80900498 86 300 C87.5597899 303.74184754 89.86732173 306.10902778 92.72509766 308.95214844 C93.44242317 309.66991203 93.44242317 309.66991203 94.17424011 310.4021759 C95.74948483 311.97603195 97.33168535 313.54269293 98.9140625 315.109375 C100.01023213 316.20181286 101.10595981 317.29469434 102.20126343 318.38800049 C105.08039888 321.25951242 107.96549056 324.12496654 110.85186768 326.98919678 C113.79809815 329.91494126 116.73865069 332.84638014 119.6796875 335.77734375 C125.44758588 341.52381482 131.22178964 347.26389806 137 353 C136.586362 353.54813354 136.172724 354.09626709 135.74655151 354.66101074 C135.20483307 355.38067017 134.66311462 356.10032959 134.10498047 356.84179688 C133.56759247 357.55493042 133.03020447 358.26806396 132.47653198 359.00280762 C130.91821376 361.11062602 129.48532367 363.2594669 128.125 365.5 C127.41666667 366.66666667 126.70833333 367.83333333 126 369 C119.63491433 363.75179943 113.84677025 357.97528548 108.03515625 352.1328125 C106.99162921 351.08741675 105.94787848 350.04224425 104.90391541 348.99728394 C102.17769255 346.2672716 99.45448819 343.53426807 96.73193359 340.80059814 C93.94487541 338.00324846 91.15492854 335.20878299 88.36523438 332.4140625 C82.90734919 326.94550306 77.45265441 321.47377555 72 316 C68.21698773 317.56943684 65.82743453 319.93101277 62.95605469 322.81689453 C62.46779205 323.30486511 61.97952942 323.79283569 61.47647095 324.29559326 C59.87015038 325.90330275 58.27102287 327.51797101 56.671875 329.1328125 C55.55701683 330.25140235 54.44171513 331.36955029 53.32598877 332.48727417 C50.39529391 335.42559325 47.47065578 338.36986955 44.54724121 341.31542969 C41.56117275 344.32198262 38.56941141 347.32285882 35.578125 350.32421875 C29.71316544 356.21060686 23.85459268 362.103301 18 368 C15.39343095 364.7465279 12.80603372 361.48085114 10.25 358.1875 C9.63640625 357.39730469 9.0228125 356.60710937 8.390625 355.79296875 C7.70226562 354.90544922 7.70226562 354.90544922 7 354 C8.549832 350.29955056 10.80394671 347.95418913 13.63330078 345.13964844 C14.33599594 344.4365152 14.33599594 344.4365152 15.05288696 343.71917725 C16.59566695 342.17778568 18.14539964 340.64359127 19.6953125 339.109375 C20.76906192 338.03935745 21.84236933 336.96889619 22.91525269 335.89801025 C25.73520452 333.08568121 28.56111154 330.27941111 31.38830566 327.47436523 C34.2742137 324.60894477 37.15444257 321.73782832 40.03515625 318.8671875 C45.68456489 313.23920488 51.34027825 307.61761116 57 302 C53.69546993 298.0756697 50.37470824 294.25026328 46.6953125 290.66796875 C45.94765625 289.93255859 45.2 289.19714844 44.4296875 288.43945312 C42.87147525 286.91689488 41.31153122 285.39610726 39.75 283.87695312 C39.01007813 283.14798828 38.27015625 282.41902344 37.5078125 281.66796875 C36.49678467 280.68219849 36.49678467 280.68219849 35.46533203 279.67651367 C34 278 34 278 34 276 C33.46375 275.8040625 32.9275 275.608125 32.375 275.40625 C28.30253189 272.9949202 25.51729519 269.23136902 22.421875 265.69921875 C18.79001224 261.58688414 18.79001224 261.58688414 14 259 C13.773125 259.53625 13.54625 260.0725 13.3125 260.625 C7.627654 270.91186419 -4.07780151 278.24913824 -15 282 C-16.01964844 282.35578125 -17.03929687 282.7115625 -18.08984375 283.078125 C-32.60365817 287.11683576 -50.17873521 284.53087934 -63.125 277.375 C-79.56309616 267.68131193 -88.85306776 253.97632229 -93.609375 235.65234375 C-96.01708367 219.3040019 -93.28521057 203.82732656 -84 190 C-74.18923523 176.96724976 -61.08680896 168.55140705 -45.0546875 165.42578125 C-27.36943181 162.96070085 -10.51645531 167.33399024 3.74609375 178.06640625 C10.14283234 183.50898901 13.90173941 188.98989168 19 196 C31.87 183.13 44.74 170.26 58 157 C54.25850238 152.63491945 50.6763965 148.55282338 46.63720703 144.52368164 C46.13889877 144.02522736 45.64059052 143.52677307 45.12718201 143.01321411 C43.50642196 141.39314159 41.88216719 139.77662388 40.2578125 138.16015625 C39.12273594 137.02694801 37.98788237 135.89351638 36.85324097 134.75987244 C33.88649256 131.79691665 30.91675198 128.83697807 27.9463501 125.87768555 C24.9077114 122.84933144 21.87195091 119.81809501 18.8359375 116.78710938 C12.8934174 110.85526911 6.947729 104.92661739 1 99 C-0.05058594 99.55429688 -1.10117187 100.10859375 -2.18359375 100.6796875 C-17.96922069 108.88248423 -34.45813599 112.45898964 -52.125 107.375 C-54.10478926 106.63863051 -56.06571919 105.8487422 -58 105 C-58.92683594 104.59910156 -59.85367188 104.19820313 -60.80859375 103.78515625 C-75.25794569 96.71419679 -84.66577091 84.89489709 -91.17578125 70.4609375 C-95.84410597 56.52233762 -96.40589251 39.39986695 -90 26 C-89.45666016 24.82824219 -89.45666016 24.82824219 -88.90234375 23.6328125 C-80.88884137 7.93178072 -67.68395981 -2.33157725 -51.171875 -7.96484375 C-33.69037478 -13.03634849 -15.18894647 -9.91682219 0 0 Z " fill="#2680FE" transform="translate(270,116)"/>
<path d="M0 0 C3.97175235 1.98587618 6.03607024 3.79367454 9.13574219 6.90869141 C9.63375839 7.40641556 10.1317746 7.90413971 10.6448822 8.41694641 C12.28366733 10.0571207 13.91526134 11.70425661 15.546875 13.3515625 C16.68415347 14.49257256 17.8218754 15.63314077 18.96002197 16.77328491 C21.94989979 19.77078762 24.93372191 22.77424851 27.9163208 25.7789917 C30.96271321 28.84586712 34.01479703 31.90706694 37.06640625 34.96875 C43.04985434 40.97362783 49.02691663 46.98481232 55 53 C55.60255615 52.18305664 56.2051123 51.36611328 56.82592773 50.52441406 C57.63249746 49.43803797 58.43922803 48.35178127 59.24609375 47.265625 C59.64131226 46.7288916 60.03653076 46.1921582 60.44372559 45.63916016 C68.49110265 34.83232883 81.73189451 25.32899358 95.4140625 23.1796875 C111.2536344 22.07905259 125.85210091 22.84718217 139 33 C140.02125922 34.31712087 141.0243597 35.64873992 142 37 C137.87732158 41.14758308 133.75122773 45.2917284 129.62207031 49.43286133 C128.22075867 50.83917075 126.82034964 52.24638022 125.42089844 53.65454102 C123.39760962 55.69009656 121.37098872 57.72228531 119.34375 59.75390625 C118.7288269 60.37399063 118.11390381 60.99407501 117.48034668 61.63294983 C113.71789671 65.39587342 109.8367307 68.96040948 105.79699707 72.42442322 C103.0647233 74.82003486 100.53312743 77.39728116 98 80 C94.89869125 83.18650954 91.75739203 86.23963413 88.375 89.12890625 C82.62931964 94.09891976 77.34619937 99.54723398 72 104.9375 C70.92862113 106.01390654 69.85700818 107.09008014 68.78515625 108.16601562 C66.18740362 110.77466745 63.59282038 113.38644471 61 116 C58 115 58 115 56.71875 113.03125 C50 99.07692308 50 99.07692308 50 93 C18.32 93 -13.36 93 -46 93 C-46.66 96.3 -47.32 99.6 -48 103 C-51.60887639 112.43706181 -56.75253768 119.96147353 -64 127 C-64.81017578 127.84111328 -64.81017578 127.84111328 -65.63671875 128.69921875 C-77.74870814 140.32306751 -93.66412748 142.70717975 -109.68359375 142.37890625 C-125.53225094 141.58916248 -139.19762192 133.2388378 -150 122 C-159.97490163 110.00683033 -165.8810955 94.70142389 -165.34765625 78.9765625 C-163.42189211 62.48855943 -156.86387196 47.64985695 -144.20703125 36.55078125 C-130.51293505 25.83289224 -114.53918412 20.19901027 -97 22 C-78.22589377 25.33761889 -65.20834485 34.02977389 -54 49 C-53.34 49.99 -52.68 50.98 -52 52 C-34.84 34.84 -17.68 17.68 0 0 Z " fill="#2780FD" transform="translate(340,431)"/>
<path d="M0 0 C1.09957031 0.01353516 2.19914063 0.02707031 3.33203125 0.04101562 C6.01355332 0.075992 8.69400073 0.12506928 11.375 0.1875 C11.06755859 1.91033203 11.06755859 1.91033203 10.75390625 3.66796875 C1.23558564 58.00294039 12.15309225 108.80491022 43.73583984 153.91162109 C47.05849483 158.52493503 50.6057121 162.9296007 54.375 167.1875 C48.82464797 173.97126359 42.61057973 180.04272968 36.375 186.1875 C33.39588298 184.76887285 30.70048631 183.11100374 27.9375 181.3125 C14.74892364 173.47998304 -0.05721628 172.1007336 -14.9375 175.25 C-23.65806374 177.80058271 -31.68341512 182.37088652 -38.625 188.1875 C-42.36684754 186.6277101 -44.73402778 184.32017827 -47.57714844 181.46240234 C-48.0556575 180.98418533 -48.53416656 180.50596832 -49.0271759 180.01325989 C-50.60103195 178.43801517 -52.16769293 176.85581465 -53.734375 175.2734375 C-54.82681286 174.17726787 -55.91969434 173.08154019 -57.01300049 171.98623657 C-59.88451242 169.10710112 -62.74996654 166.22200944 -65.61419678 163.33563232 C-68.53994126 160.38940185 -71.47138014 157.44884931 -74.40234375 154.5078125 C-80.14881482 148.73991412 -85.88889806 142.96571036 -91.625 137.1875 C-90.14699351 134.09568844 -88.65056628 131.96613536 -86.2109375 129.54296875 C-85.53160156 128.86556641 -84.85226562 128.18816406 -84.15234375 127.49023438 C-83.44207031 126.79220703 -82.73179687 126.09417969 -82 125.375 C-81.31292969 124.68857422 -80.62585938 124.00214844 -79.91796875 123.29492188 C-75.95242133 119.36285469 -71.87538257 115.6225182 -67.65136719 111.97143555 C-64.00805448 108.7640035 -60.52898717 105.39632828 -57.0625 102 C-56.32708984 101.30197266 -55.59167969 100.60394531 -54.83398438 99.88476562 C-54.14498047 99.20736328 -53.45597656 98.52996094 -52.74609375 97.83203125 C-52.1214624 97.22721924 -51.49683105 96.62240723 -50.85327148 95.99926758 C-49.39161172 94.26599578 -49.39161172 94.26599578 -49.85546875 92.14160156 C-51.33819766 88.37644859 -52.94823315 84.67334811 -54.56640625 80.96484375 C-55.625 78.1875 -55.625 78.1875 -55.625 75.1875 C-61.84104833 80.45244387 -67.63420265 86.06441321 -73.375 91.83984375 C-74.27371826 92.73997696 -75.17243652 93.64011017 -76.09838867 94.56752014 C-78.46086575 96.93461263 -80.82115112 99.30384639 -83.18035889 101.67419434 C-85.59885181 104.10300742 -88.02025946 106.52891103 -90.44140625 108.95507812 C-95.17192954 113.69657369 -99.89957973 118.44091898 -104.625 123.1875 C-113.64797039 115.67702414 -121.83271463 107.27955895 -130.15234375 99.01025391 C-132.14160181 97.034439 -134.1379242 95.06619045 -136.140625 93.10400391 C-139.03491429 90.26822437 -141.90870846 87.41249725 -144.78125 84.5546875 C-145.68315063 83.67545624 -146.58505127 82.79622498 -147.51428223 81.89035034 C-148.3326355 81.06914703 -149.15098877 80.24794373 -149.99414062 79.40185547 C-150.72137329 78.68270966 -151.44860596 77.96356384 -152.19787598 77.22262573 C-152.6688269 76.55103424 -153.13977783 75.87944275 -153.625 75.1875 C-153.295 73.8675 -152.965 72.5475 -152.625 71.1875 C-120.945 71.1875 -89.265 71.1875 -56.625 71.1875 C-56.955 70.5275 -57.285 69.8675 -57.625 69.1875 C-57.625 63.5775 -57.625 57.9675 -57.625 52.1875 C-88.645 52.1875 -119.665 52.1875 -151.625 52.1875 C-144.875 44.3125 -144.875 44.3125 -141.27197266 40.72094727 C-140.47159576 39.9206459 -139.67121887 39.12034454 -138.84658813 38.29579163 C-138.00260468 37.45696945 -137.15862122 36.61814728 -136.2890625 35.75390625 C-135.40971039 34.87596909 -134.53035828 33.99803192 -133.62435913 33.0934906 C-130.83525942 30.30995588 -128.04268982 27.52993231 -125.25 24.75 C-123.3497458 22.85533335 -121.45025347 20.9599037 -119.55078125 19.06445312 C-114.91149396 14.43614839 -110.26935833 9.81071579 -105.625 5.1875 C-101.48262009 7.08820301 -98.66309281 9.89525798 -95.50390625 13.11328125 C-94.9221312 13.6978862 -94.34035614 14.28249115 -93.74095154 14.8848114 C-91.88504158 16.75188702 -90.03619648 18.62578434 -88.1875 20.5 C-86.94772942 21.7498092 -85.70749975 22.99916318 -84.46679688 24.24804688 C-81.6700058 27.06474661 -78.87551546 29.88364172 -76.09255981 32.71401978 C-75.11527476 33.69524738 -74.12595472 34.66463533 -73.12496948 35.62167358 C-71.92388338 36.77548051 -70.76950621 37.97754801 -69.625 39.1875 C-69.625 39.8475 -69.625 40.5075 -69.625 41.1875 C-68.14 41.6825 -68.14 41.6825 -66.625 42.1875 C-64.87109375 44 -64.87109375 44 -63.0625 46.1875 C-60.70289673 49.13709179 -60.70289673 49.13709179 -57.625 51.1875 C-57.563125 49.95 -57.50125 48.7125 -57.4375 47.4375 C-55.72136604 32.46246806 -45.78971336 19.67989538 -34.625 10.1875 C-23.4794567 2.35470074 -13.49781421 -0.31981455 0 0 Z " fill="#82B1FE" transform="translate(446.625,280.8125)"/>
<path d="M0 0 C10.93598053 9.29119284 20.871198 23.11176038 22.09521484 37.88208008 C22.65805497 55.81621325 20.99251897 69.7367223 9.90234375 84.5546875 C9.33 85.33328125 8.75765625 86.111875 8.16796875 86.9140625 C-1.12289441 98.42838009 -15.57463351 106.13820888 -30.26904297 107.80029297 C-46.15056339 108.9319174 -60.40161811 105.20063247 -73.03515625 95.23828125 C-76.79988992 91.91677931 -80.1882108 88.65941468 -83.09765625 84.5546875 C-87.12295071 85.07397355 -88.62785255 86.92326138 -91.19116211 89.95458984 C-96.10069548 95.60042485 -101.29769952 100.88227229 -106.6015625 106.15625 C-107.57541122 107.12822712 -108.54903457 108.10043009 -109.52244568 109.07284546 C-112.05019207 111.596825 -114.58092918 114.11778377 -117.11236572 116.63806152 C-119.70893462 119.22428879 -122.30257467 121.81344989 -124.89648438 124.40234375 C-129.96072671 129.45595204 -135.02814378 134.50636547 -140.09765625 139.5546875 C-143.28706774 138.03592012 -145.43012461 136.46527993 -147.91015625 133.9296875 C-148.53535156 133.29804688 -149.16054688 132.66640625 -149.8046875 132.015625 C-151.64214084 130.04357116 -153.39876548 128.04233392 -155.15136719 125.99658203 C-159.4049977 121.12858988 -163.94765305 116.57883151 -168.53125 112.0234375 C-169.40918716 111.14691528 -170.28712433 110.27039307 -171.19166565 109.36730957 C-173.97047121 106.59405954 -176.75275022 103.82432468 -179.53515625 101.0546875 C-181.4308549 99.16457945 -183.32575408 97.27367232 -185.22070312 95.3828125 C-189.84370814 90.77077746 -194.46956282 86.16161609 -199.09765625 81.5546875 C-198.54335938 80.43191406 -197.9890625 79.30914062 -197.41796875 78.15234375 C-196.68570007 76.64086609 -195.95395735 75.12913354 -195.22265625 73.6171875 C-194.85785156 72.88177734 -194.49304688 72.14636719 -194.1171875 71.38867188 C-193.58544922 70.28168945 -193.58544922 70.28168945 -193.04296875 69.15234375 C-192.71828613 68.48726807 -192.39360352 67.82219238 -192.05908203 67.13696289 C-190.66865653 63.40244525 -189.96211542 59.44475375 -189.09765625 55.5546875 C-158.07765625 55.5546875 -127.05765625 55.5546875 -95.09765625 55.5546875 C-95.09765625 50.2746875 -95.09765625 44.9946875 -95.09765625 39.5546875 C-94.01006491 33.97326132 -92.14712126 28.84105129 -90.09765625 23.5546875 C-89.57365234 22.16636719 -89.57365234 22.16636719 -89.0390625 20.75 C-82.93272978 6.74793302 -69.59806108 -3.59424579 -55.875 -9.4453125 C-36.92365511 -16.26886284 -15.69695507 -12.39129114 0 0 Z " fill="#76A9FA" transform="translate(483.09765625,119.4453125)"/>
<path d="M0 0 C16.12147249 12.80919563 26.27814385 27.60477411 30.43359375 47.93359375 C30.61792969 48.72894531 30.80226563 49.52429688 30.9921875 50.34375 C34.07333222 68.4216168 28.59133392 87.09431783 18.5703125 102.13671875 C9.06176056 114.58301343 -2.93543256 123.29198949 -17.56640625 128.93359375 C-18.81164062 129.41505859 -18.81164062 129.41505859 -20.08203125 129.90625 C-38.25839812 135.61958169 -59.55916557 132.89053576 -76.25390625 124.30859375 C-94.86329993 114.06380997 -107.37071388 98.54972644 -113.39892578 78.1887207 C-118.60176247 58.95789363 -115.39044836 40.04429062 -105.90234375 22.69921875 C-102.32129894 16.63519283 -97.60885979 11.7941406 -92.56640625 6.93359375 C-91.84839844 6.19625 -91.13039063 5.45890625 -90.390625 4.69921875 C-66.82759147 -18.19819237 -25.98438738 -19.33238421 0 0 Z " fill="#FCFDFE" transform="translate(684.56640625,267.06640625)"/>
<path d="M0 0 C11.9947489 8.76296676 20.00543092 20.66004926 24 35 C24 36.98 24 38.96 24 41 C55.35 41 86.7 41 119 41 C118.67 46.94 118.34 52.88 118 59 C86.98 59 55.96 59 24 59 C23.67 61.97 23.34 64.94 23 68 C21.93037865 70.8132133 20.87844049 73.29710232 19.5 75.9375 C19.14542725 76.6277124 18.79085449 77.3179248 18.42553711 78.02905273 C11.18039883 91.57389813 -0.78432148 101.37296059 -15 107 C-28.67974557 111.05031654 -44.93298024 110.73367167 -58 105 C-58.92683594 104.59910156 -59.85367188 104.19820313 -60.80859375 103.78515625 C-75.25794569 96.71419679 -84.66577091 84.89489709 -91.17578125 70.4609375 C-95.84410597 56.52233762 -96.40589251 39.39986695 -90 26 C-89.45666016 24.82824219 -89.45666016 24.82824219 -88.90234375 23.6328125 C-80.88884137 7.93178072 -67.68395981 -2.33157725 -51.171875 -7.96484375 C-33.69037478 -13.03634849 -15.18894647 -9.91682219 0 0 Z " fill="#2680FE" transform="translate(270,116)"/>
<path d="M0 0 C2.0100152 1.4445774 3.82578017 2.97556939 5.65234375 4.64453125 C6.255625 5.14597656 6.85890625 5.64742187 7.48046875 6.1640625 C14.85187084 12.75025002 20.04009483 23.23418271 20.85522461 33.10009766 C20.9567559 35.88879002 20.97435448 38.66658389 20.96484375 41.45703125 C20.98095703 42.39095703 20.99707031 43.32488281 21.01367188 44.28710938 C21.02236756 56.81759298 16.59618779 68.52855435 8.15234375 77.89453125 C-1.38353689 86.8401833 -12.9608893 90.02308609 -25.703125 89.9296875 C-34.01073523 89.27968155 -40.18143397 85.73951541 -47.34765625 81.64453125 C-47.34765625 95.83453125 -47.34765625 110.02453125 -47.34765625 124.64453125 C-55.26765625 124.64453125 -63.18765625 124.64453125 -71.34765625 124.64453125 C-71.34765625 82.40453125 -71.34765625 40.16453125 -71.34765625 -3.35546875 C-63.75765625 -3.35546875 -56.16765625 -3.35546875 -48.34765625 -3.35546875 C-48.01765625 -1.04546875 -47.68765625 1.26453125 -47.34765625 3.64453125 C-46.67283203 3.17273438 -46.67283203 3.17273438 -45.984375 2.69140625 C-31.73215963 -6.79102963 -15.31557064 -8.84276707 0 0 Z " fill="#012055" transform="translate(493.34765625,750.35546875)"/>
<path d="M0 0 C7.59 0 15.18 0 23 0 C23 42.57 23 85.14 23 129 C15.41 129 7.82 129 0 129 C0.33 126.36 0.66 123.72 1 121 C0.32195312 121.47050781 -0.35609375 121.94101562 -1.0546875 122.42578125 C-11.80753443 129.61916777 -20.96146823 132.33465286 -34 131 C-44.61607245 128.41556289 -53.8599337 122.684079 -59.671875 113.30078125 C-67.21389972 99.01947206 -69.56264836 83.61587725 -65.0390625 67.91015625 C-60.28332156 54.59050589 -53.71143293 45.41702563 -41 39 C-31.52148188 34.94381394 -21.80058035 35.20427185 -12 38 C-8.05218788 39.62989197 -4.55030162 41.63313226 -1 44 C-0.67 29.48 -0.34 14.96 0 0 Z " fill="#011F54" transform="translate(181,709)"/>
<path d="M0 0 C0.79664063 0.36222656 1.59328125 0.72445313 2.4140625 1.09765625 C12.64880504 6.28536939 19.63176687 13.95890073 25 24 C25.43570313 24.80695313 25.87140625 25.61390625 26.3203125 26.4453125 C31.46917671 37.93124034 30.56982863 53.56038115 26.3203125 65.1796875 C20.56710906 77.46907473 10.65246086 87.89318527 -2 93 C-16.42319853 97.34176102 -29.02951071 97.30475734 -42.73046875 90.6796875 C-55.05625876 83.68551829 -63.93290057 73.81558962 -69 60.4375 C-72.22711899 47.42286883 -71.15946237 32.8978982 -65 21 C-57.72360416 9.10137752 -46.74058956 1.34224695 -33.67578125 -3.140625 C-22.4370667 -5.76816719 -10.47833489 -4.79863685 0 0 Z " fill="#2781FE" transform="translate(663,281)"/>
<path d="M0 0 C2.40261141 2.38583925 4.78966096 4.77561234 7.10546875 7.24609375 C17.25551922 17.92935513 29.82054186 24.38024326 44.6640625 25.203125 C53.25398307 25.30478086 60.72847681 24.63184829 69 22 C69.25990723 22.49588623 69.51981445 22.99177246 69.78759766 23.50268555 C79.20375669 41.34114374 89.581542 58.84211226 103 74 C97.44964797 80.78376359 91.23557973 86.85522968 85 93 C82.02088298 91.58137285 79.32548631 89.92350374 76.5625 88.125 C63.37392364 80.29248304 48.56778372 78.9132336 33.6875 82.0625 C24.96693626 84.61308271 16.94158488 89.18338652 10 95 C6.25815246 93.4402101 3.89097222 91.13267827 1.04785156 88.27490234 C0.5693425 87.79668533 0.09083344 87.31846832 -0.4021759 86.82575989 C-1.97603195 85.25051517 -3.54269293 83.66831465 -5.109375 82.0859375 C-6.20181286 80.98976787 -7.29469434 79.89404019 -8.38800049 78.79873657 C-11.25951242 75.91960112 -14.12496654 73.03450944 -16.98919678 70.14813232 C-19.91494126 67.20190185 -22.84638014 64.26134931 -25.77734375 61.3203125 C-31.52381482 55.55241412 -37.26389806 49.77821036 -43 44 C-41.52199351 40.90818844 -40.02556628 38.77863536 -37.5859375 36.35546875 C-36.90660156 35.67806641 -36.22726562 35.00066406 -35.52734375 34.30273438 C-34.46193359 33.25569336 -34.46193359 33.25569336 -33.375 32.1875 C-32.68792969 31.50107422 -32.00085938 30.81464844 -31.29296875 30.10742188 C-27.96435828 26.80691412 -24.59197089 23.60524743 -21.0390625 20.546875 C-16.47093736 16.60382034 -12.2411969 12.35147468 -8 8.0625 C-7.22527344 7.28326172 -6.45054687 6.50402344 -5.65234375 5.70117188 C-3.76589243 3.8030758 -1.88183755 1.90266851 0 0 Z " fill="#FDFEFE" transform="translate(398,374)"/>
<path d="M0 0 C7.59 0 15.18 0 23 0 C26.375 9 26.375 9 27.62573242 13.40625 C27.90579636 14.3866626 28.18586029 15.3670752 28.47441101 16.37719727 C28.76516006 17.40772217 29.05590912 18.43824707 29.35546875 19.5 C29.66196854 20.57628662 29.96846832 21.65257324 30.28425598 22.76147461 C31.25512874 26.17343739 32.22138205 29.58668818 33.1875 33 C33.84800178 35.32430559 34.50880592 37.64852528 35.16992188 39.97265625 C36.78344798 45.6474482 38.3931912 51.32330262 40 57 C41.55526643 54.06720051 42.67441673 51.16541721 43.67993164 48.00366211 C43.99688492 47.01260971 44.3138382 46.02155731 44.64039612 45.00047302 C44.97691696 43.93684036 45.31343781 42.8732077 45.66015625 41.77734375 C46.18505898 40.1318026 46.18505898 40.1318026 46.7205658 38.45301819 C47.83761805 34.94881582 48.95014147 31.44319482 50.0625 27.9375 C50.81545109 25.57216879 51.56870276 23.20693325 52.32226562 20.84179688 C53.97960584 15.6394429 55.63399291 10.43615956 57.28578186 5.23204041 C57.84509226 3.48411028 58.41964771 1.74105688 59 0 C65.93 0 72.86 0 80 0 C84.05596326 12.00345883 87.93171181 24.03954236 91.57958984 36.1730957 C92.38864034 38.85776265 93.20796689 41.53917227 94.02734375 44.22070312 C94.54750172 45.94512358 95.06705652 47.66972612 95.5859375 49.39453125 C95.95143204 50.5835479 95.95143204 50.5835479 96.3243103 51.79658508 C97.46651115 55.6353496 98.31173835 58.94588822 98 63 C98.66 63 99.32 63 100 63 C100.09079834 61.94425781 100.18159668 60.88851562 100.27514648 59.80078125 C101.03691264 53.75501288 102.86813294 48.01462392 104.59765625 42.1875 C105.12823891 40.37330566 105.12823891 40.37330566 105.66954041 38.52246094 C106.60384616 35.33190084 107.54342087 32.1429931 108.48565674 28.95477295 C109.44871404 25.69122028 110.40470943 22.4256008 111.36132812 19.16015625 C113.23443205 12.7715233 115.11516772 6.3851821 117 0 C124.92 0 132.84 0 141 0 C139.06668253 7.08883073 137.08318024 14.05147262 134.77734375 21.01171875 C134.47535568 21.9316713 134.17336761 22.85162384 133.86222839 23.79945374 C133.22003485 25.75569256 132.57674842 27.71157292 131.93243408 29.66711426 C126.44384293 46.32918541 121.04863291 63.01505327 115.88256836 79.7800293 C115.32581421 81.58274292 115.32581421 81.58274292 114.7578125 83.421875 C114.4395752 84.45924805 114.12133789 85.49662109 113.79345703 86.56542969 C113 89 113 89 112 91 C103.75 91 95.5 91 87 91 C86.49025635 89.34436035 85.9805127 87.6887207 85.45532227 85.98291016 C83.77240092 80.51826086 82.08787122 75.05410915 80.40223789 69.59029579 C79.38010784 66.27695269 78.35862842 62.96341191 77.33862305 59.64941406 C76.16647426 55.84120276 74.99151861 52.03386042 73.81640625 48.2265625 C73.26636681 46.43745956 73.26636681 46.43745956 72.70521545 44.61221313 C72.3649382 43.51122284 72.02466095 42.41023254 71.67407227 41.27587891 C71.3742897 40.30325104 71.07450714 39.33062317 70.76564026 38.32852173 C70.06629042 36.01136745 70.06629042 36.01136745 69 34 C68.8209613 34.56661346 68.64192261 35.13322693 68.4574585 35.7170105 C66.5798626 41.65653709 64.6969436 47.5943577 62.81103516 53.53125 C62.10949484 55.74208668 61.40927677 57.95334341 60.71044922 60.16503906 C59.70113595 63.35855809 58.68695166 66.55049638 57.671875 69.7421875 C57.36441345 70.71864227 57.0569519 71.69509705 56.74017334 72.70114136 C56.44016418 73.64136139 56.14015503 74.58158142 55.83105469 75.55029297 C55.57346375 76.3630368 55.3158728 77.17578064 55.05047607 78.01315308 C53.50943551 82.39483524 51.72502652 86.6874337 50 91 C42.74 91 35.48 91 28 91 C21.789252 71.91521407 15.68418914 52.79655165 9.61761475 33.66549683 C8.78839204 31.05104041 7.95710141 28.43725504 7.12408447 25.82400513 C5.93976807 22.1081867 4.76254023 18.39014357 3.5859375 14.671875 C3.22389221 13.53876389 2.86184692 12.40565277 2.48883057 11.23820496 C2.16042175 10.19634537 1.83201294 9.15448578 1.49365234 8.08105469 C1.20404633 7.16862 0.91444031 6.2561853 0.61605835 5.31610107 C0 3 0 3 0 0 Z " fill="#021F54" transform="translate(762,747)"/>
<path d="M0 0 C31.35 0 62.7 0 95 0 C96.65 5.28 98.3 10.56 100 16 C102.37929866 21.07902499 102.37929866 21.07902499 105 26 C93.86945586 38.18151206 82.26292685 49.86112325 70.5690918 61.49957275 C68.12618665 63.93204961 65.68628781 66.36753838 63.24609375 68.80273438 C58.50008223 73.53785667 53.75121314 78.2700973 49 83 C45.81058851 81.48123262 43.66753164 79.91059243 41.1875 77.375 C40.56230469 76.74335938 39.93710937 76.11171875 39.29296875 75.4609375 C37.45551541 73.48888366 35.69889077 71.48764642 33.94628906 69.44189453 C29.69265855 64.57390238 25.1500032 60.02414401 20.56640625 55.46875 C19.68846909 54.59222778 18.81053192 53.71570557 17.9059906 52.81262207 C15.12718504 50.03937204 12.34490603 47.26963718 9.5625 44.5 C7.66680135 42.60989195 5.77190217 40.71898482 3.87695312 38.828125 C-0.74605189 34.21608996 -5.37190657 29.60692859 -10 25 C-9.44570313 23.865625 -8.89140625 22.73125 -8.3203125 21.5625 C-7.58815015 20.04185511 -6.85640133 18.52101107 -6.125 17 C-5.76019531 16.25621094 -5.39539063 15.51242188 -5.01953125 14.74609375 C-4.66503906 14.00488281 -4.31054688 13.26367188 -3.9453125 12.5 C-3.62062988 11.8296875 -3.29594727 11.159375 -2.96142578 10.46875 C-1.64539493 7.08944477 -0.87956008 3.51824034 0 0 Z " fill="#FDFDFE" transform="translate(294,176)"/>
<path d="M0 0 C12.02750013 7.65386372 17.51464989 17.57002919 20.8125 31.25 C20.8125 36.53 20.8125 41.81 20.8125 47.25 C-0.9675 47.25 -22.7475 47.25 -45.1875 47.25 C-42.51312615 58.6177156 -42.51312615 58.6177156 -35.3125 66.5 C-28.46057139 70.33708002 -21.65689005 71.55314163 -13.94140625 69.71484375 C-9.08572447 68.03508994 -4.6025983 65.77562247 -2.0078125 61.14453125 C-0.1875 59.25 -0.1875 59.25 3.17578125 58.7890625 C4.47902344 58.81742188 5.78226562 58.84578125 7.125 58.875 C9.06826172 58.89433594 9.06826172 58.89433594 11.05078125 58.9140625 C14.6267818 59.23341457 17.47871063 59.95783358 20.8125 61.25 C20.02236563 69.54641088 15.51837255 74.07353781 9.43359375 79.2890625 C-0.79178095 86.93904476 -12.48129942 90.4412063 -25.1875 89.25 C-39.45359232 86.94338996 -52.16170846 80.42957542 -61.03515625 68.8359375 C-68.75382268 56.8881246 -70.21765884 42.54990189 -67.49609375 28.7421875 C-65.48092071 22.14860878 -62.31778911 16.73057593 -58.1875 11.25 C-57.32125 9.950625 -57.32125 9.950625 -56.4375 8.625 C-41.38176806 -7.26716149 -18.88616053 -10.58984113 0 0 Z " fill="#032054" transform="translate(387.1875,750.75)"/>
<path d="M0 0 C9.47772159 7.42751236 13.75715331 16.0582397 17.05859375 27.61328125 C17.05859375 33.22328125 17.05859375 38.83328125 17.05859375 44.61328125 C-4.72140625 44.61328125 -26.50140625 44.61328125 -48.94140625 44.61328125 C-46.58629243 55.83803764 -46.58629243 55.83803764 -39.3671875 63.3046875 C-31.73379018 67.51722815 -25.79243814 69.09774186 -17.30859375 66.9453125 C-12.67731011 65.36238122 -9.94378101 63.99445962 -7.25390625 59.86328125 C-5.09182421 56.95350513 -4.13920321 56.64274037 -0.453125 56.09375 C5.72478046 55.90213989 11.24674334 56.39796173 17.05859375 58.61328125 C16.26837193 66.9106104 11.76400846 71.4319877 5.68359375 76.65234375 C-5.27378435 84.83776608 -17.40440784 88.0508386 -30.94140625 86.61328125 C-44.64096363 83.44313574 -56.58469902 77.21770879 -64.94140625 65.61328125 C-72.40261495 53.52688451 -73.86134555 40.14301084 -70.75390625 26.30078125 C-66.98659688 13.19332239 -58.49747292 2.92061819 -46.74609375 -3.98046875 C-31.23464588 -11.75779637 -13.95277098 -10.02311355 0 0 Z " fill="#032054" transform="translate(738.94140625,753.38671875)"/>
<path d="M0 0 C9.1182717 7.25243319 14.46851523 17.51386426 16 29 C16 33.95 16 38.9 16 44 C-5.78 44 -27.56 44 -50 44 C-47.42050166 55.15969837 -47.42050166 55.15969837 -41 62 C-40.360625 62.556875 -39.72125 63.11375 -39.0625 63.6875 C-33.17863874 67.43177535 -26.79116144 67.89260523 -20 67 C-14.74007794 65.26407671 -11.00464048 63.38180926 -7.7109375 58.8515625 C-5 56 -5 56 -1.1875 55.34375 C0.2091456 55.36483144 1.60562344 55.41767518 3 55.5 C3.69867188 55.5103125 4.39734375 55.520625 5.1171875 55.53125 C9.1353686 55.65255358 12.38099472 56.24704432 16 58 C15.64494584 65.10108328 11.70063868 69.48245547 6.6953125 74.1484375 C-4.84227159 83.81700485 -17.02081366 87.27890598 -32 86 C-44.50670374 83.50149846 -57.05109905 77.12072193 -64.72265625 66.6484375 C-71.82824643 55.37027717 -74.62412798 43.14120855 -72.50390625 29.90234375 C-69.32377081 15.9780219 -62.53595189 5.12383395 -50.5625 -2.9375 C-34.04699312 -12.62294249 -15.39022198 -11.07591385 0 0 Z " fill="#032054" transform="translate(291,754)"/>
<path d="M0 0 C3.47403552 1.49196533 5.72076139 3.47279606 8.38208008 6.13916016 C9.66910576 7.42157089 9.66910576 7.42157089 10.98213196 8.72988892 C12.36189461 10.12042984 12.36189461 10.12042984 13.76953125 11.5390625 C14.73317015 12.50389517 15.69718084 13.46835664 16.6615448 14.4324646 C18.68283325 16.45531615 20.70072385 18.48147684 22.71606445 20.51025391 C25.27950977 23.09058594 27.84938415 25.66439059 30.42166615 28.23591042 C32.41501352 30.22953209 34.40572562 32.22576822 36.39560509 34.2228508 C37.79643773 35.6283504 39.19871453 37.03241018 40.60102844 38.43643188 C45.07140401 42.93968492 49.41895441 47.48808516 53.5332489 52.32040405 C54.95971558 53.95386978 56.44897288 55.48521648 58 57 C61.66525453 55.45779968 64.00124788 53.24646163 66.796875 50.44604492 C67.25920532 49.98561295 67.72153564 49.52518097 68.19787598 49.05079651 C69.72017572 47.53219167 71.2351696 46.00652161 72.75 44.48046875 C73.81050716 43.41876856 74.87138527 42.35743877 75.93261719 41.29646301 C78.1548064 39.07271095 80.37360045 36.84564447 82.58984375 34.6159668 C85.42258845 31.76626381 88.26183948 28.92315606 91.10345459 26.08230114 C93.29484077 23.89064217 95.48360417 21.69637962 97.67150879 19.5012455 C98.71704802 18.45253649 99.76318307 17.40442112 100.80993652 16.35692406 C102.27685907 14.88781816 103.74043361 13.41545583 105.203125 11.94213867 C106.03489258 11.1065593 106.86666016 10.27097992 107.72363281 9.41007996 C109.96466606 7.03740944 112.00002687 4.57745317 114 2 C118.24325763 2.47470234 119.93227411 4.79898839 122.625 7.9375 C123.40101563 8.83339844 124.17703125 9.72929687 124.9765625 10.65234375 C125.64429688 11.42707031 126.31203125 12.20179688 127 13 C127.99 13.99 127.99 13.99 129 15 C110.52 33.48 92.04 51.96 73 71 C77.73268047 76.56537902 77.73268047 76.56537902 82.71044922 81.82397461 C83.37068085 82.48413071 84.03091248 83.1442868 84.71115112 83.82444763 C85.40201813 84.51015335 86.09288513 85.19585907 86.8046875 85.90234375 C87.5286673 86.6249086 88.25264709 87.34747345 88.99856567 88.0919342 C91.28835265 90.37616922 93.58160993 92.65688312 95.875 94.9375 C97.43773161 96.49521039 99.0002339 98.05315087 100.5625 99.61132812 C104.3723531 103.41021602 108.18505379 107.20622713 112 111 C111.65066406 112.02480469 111.30132812 113.04960937 110.94140625 114.10546875 C110.48160964 115.46609137 110.0219832 116.82677151 109.5625 118.1875 C109.33240234 118.86103516 109.10230469 119.53457031 108.86523438 120.22851562 C107.66475915 123.79514491 106.62722505 127.2871161 106 131 C102.81580579 129.62845314 101.02887404 128.13830017 98.875 125.4375 C96.79096366 122.78974334 96.79096366 122.78974334 94 121 C94 120.34 94 119.68 94 119 C93.4237085 118.7613623 92.84741699 118.52272461 92.25366211 118.27685547 C89.53006819 116.73375113 87.97717188 114.94715754 85.94140625 112.5703125 C80.84052931 106.75955742 75.42792533 101.31575551 69.9375 95.875 C68.96655904 94.90909319 67.99585477 93.94294838 67.02539062 92.9765625 C64.68589498 90.64870613 62.34407948 88.32323895 60 86 C56.51137284 87.49311788 54.28481377 89.48275415 51.63037109 92.17431641 C50.34916885 93.46542831 50.34916885 93.46542831 49.04208374 94.78262329 C48.12843048 95.71287323 47.21477722 96.64312317 46.2734375 97.6015625 C45.32045949 98.56335406 44.36688815 99.52455806 43.41275024 100.48519897 C40.39452261 103.52623903 37.38422747 106.57505712 34.375 109.625 C30.88087969 113.1662763 27.38360676 116.70431372 23.87782669 120.23405075 C22.47446361 121.65041112 21.0772092 123.07281559 19.68002319 124.49526978 C18.40827744 125.7769252 18.40827744 125.7769252 17.11083984 127.08447266 C15.98976334 128.22125961 15.98976334 128.22125961 14.84603882 129.38101196 C13 131 13 131 11 131 C10.89042969 130.39414062 10.78085937 129.78828125 10.66796875 129.1640625 C10.50941406 128.32617188 10.35085938 127.48828125 10.1875 126.625 C10.03667969 125.81289063 9.88585937 125.00078125 9.73046875 124.1640625 C8.70452645 119.72014131 7.31053928 115.36846426 6 111 C18.87 98.13 31.74 85.26 45 72 C41.25642571 67.63249666 37.68943581 63.57018521 33.63720703 59.55541992 C33.13889877 59.06017822 32.64059052 58.56493652 32.12718201 58.0546875 C31.05943429 56.99402207 29.99055595 55.93449377 28.92062759 54.87602806 C27.22870379 53.20166211 25.5404922 51.52363238 23.85324097 49.84455872 C19.0607332 45.0763766 14.26242997 40.3140566 9.45996094 35.5559082 C6.51165283 32.63430369 3.56817055 29.70790972 0.62765121 26.77846718 C-0.4924689 25.66456593 -1.6144842 24.55256717 -2.73839951 23.44249535 C-4.30132177 21.89868197 -5.85808565 20.34890512 -7.41357422 18.79760742 C-8.30148651 17.91715256 -9.1893988 17.03669769 -10.10421753 16.12956238 C-12 14 -12 14 -12 12 C-10.390625 10.44921875 -10.390625 10.44921875 -8.25 8.6875 C-5.09829823 6.01637687 -2.44230671 3.35817172 0 0 Z " fill="#011E53" transform="translate(283,201)"/>
<path d="M0 0 C5.8797505 4.87724437 11.26880817 10.13886878 16.65234375 15.5546875 C17.55247696 16.45623566 18.45261017 17.35778381 19.38002014 18.28665161 C21.75072823 20.66198217 24.11924515 23.03945405 26.48669434 25.41802979 C28.91180728 27.85344717 31.33982085 30.28596912 33.76757812 32.71875 C38.51437128 37.47652769 43.25829281 42.2371538 48 47 C53.87385166 42.1350292 59.22731472 36.87169538 64.58203125 31.4453125 C66.41848887 29.59622413 68.25508129 27.74726964 70.09179688 25.8984375 C72.96918472 22.99723098 75.84400432 20.09349788 78.71655273 17.1875 C81.49983793 14.37241947 84.29096554 11.56517938 87.08203125 8.7578125 C87.94657425 7.87980988 88.81111725 7.00180725 89.70185852 6.09719849 C90.49996445 5.29571381 91.29807037 4.49422913 92.12036133 3.66845703 C92.82316727 2.95819366 93.52597321 2.2479303 94.25007629 1.5161438 C96 0 96 0 98 0 C98.98238408 2.41540306 99.96100218 4.83221822 100.9375 7.25 C101.21529297 7.93191406 101.49308594 8.61382812 101.77929688 9.31640625 C102.53944385 11.20303609 103.27078068 13.10120176 104 15 C104.29003906 15.62898193 104.58007812 16.25796387 104.87890625 16.90600586 C105 19 105 19 103.12915039 21.4543457 C102.21125732 22.35241943 101.29336426 23.25049316 100.34765625 24.17578125 C99.85470566 24.66402878 99.36175507 25.15227631 98.85386658 25.65531921 C97.26806914 27.21974493 95.66555173 28.76578017 94.0625 30.3125 C93.01649103 31.34199559 91.9715563 32.37258387 90.92773438 33.40429688 C85.9981996 38.25389614 80.98427426 42.97185737 75.73608398 47.4777832 C73.03607292 49.84518146 70.51495713 52.37649436 68 54.9375 C67.51144531 55.43056641 67.02289063 55.92363281 66.51953125 56.43164062 C65.34396475 57.61873229 64.17161174 58.80900498 63 60 C64.5597899 63.74184754 66.86732173 66.10902778 69.72509766 68.95214844 C70.20331467 69.4306575 70.68153168 69.90916656 71.17424011 70.4021759 C72.74948483 71.97603195 74.33168535 73.54269293 75.9140625 75.109375 C77.01023213 76.20181286 78.10595981 77.29469434 79.20126343 78.38800049 C82.08039888 81.25951242 84.96549056 84.12496654 87.85186768 86.98919678 C90.79809815 89.91494126 93.73865069 92.84638014 96.6796875 95.77734375 C102.44758588 101.52381482 108.22178964 107.26389806 114 113 C113.586362 113.54813354 113.172724 114.09626709 112.74655151 114.66101074 C112.20483307 115.38067017 111.66311462 116.10032959 111.10498047 116.84179688 C110.56759247 117.55493042 110.03020447 118.26806396 109.47653198 119.00280762 C107.91821376 121.11062602 106.48532367 123.2594669 105.125 125.5 C104.41666667 126.66666667 103.70833333 127.83333333 103 129 C96.63491433 123.75179943 90.84677025 117.97528548 85.03515625 112.1328125 C83.99162921 111.08741675 82.94787848 110.04224425 81.90391541 108.99728394 C79.17769255 106.2672716 76.45448819 103.53426807 73.73193359 100.80059814 C70.94487541 98.00324846 68.15492854 95.20878299 65.36523438 92.4140625 C59.90734919 86.94550306 54.45265441 81.47377555 49 76 C45.21698773 77.56943684 42.82743453 79.93101277 39.95605469 82.81689453 C39.46779205 83.30486511 38.97952942 83.79283569 38.47647095 84.29559326 C36.87015038 85.90330275 35.27102287 87.51797101 33.671875 89.1328125 C32.55701683 90.25140235 31.44171513 91.36955029 30.32598877 92.48727417 C27.39529391 95.42559325 24.47065578 98.36986955 21.54724121 101.31542969 C18.56117275 104.32198262 15.56941141 107.32285882 12.578125 110.32421875 C6.71316544 116.21060686 0.85459268 122.103301 -5 128 C-7.60656905 124.7465279 -10.19396628 121.48085114 -12.75 118.1875 C-13.67039062 117.00220703 -13.67039062 117.00220703 -14.609375 115.79296875 C-15.06828125 115.20128906 -15.5271875 114.60960937 -16 114 C-14.450168 110.29955056 -12.19605329 107.95418913 -9.36669922 105.13964844 C-8.89823578 104.67089294 -8.42977234 104.20213745 -7.94711304 103.71917725 C-6.40433305 102.17778568 -4.85460036 100.64359127 -3.3046875 99.109375 C-2.23093808 98.03935745 -1.15763067 96.96889619 -0.08474731 95.89801025 C2.73520452 93.08568121 5.56111154 90.27941111 8.38830566 87.47436523 C11.2742137 84.60894477 14.15444257 81.73782832 17.03515625 78.8671875 C22.68456489 73.23920488 28.34027825 67.61761116 34 62 C30.69546993 58.0756697 27.37470824 54.25026328 23.6953125 50.66796875 C22.94765625 49.93255859 22.2 49.19714844 21.4296875 48.43945312 C19.87147525 46.91689488 18.31153122 45.39610726 16.75 43.87695312 C16.01007813 43.14798828 15.27015625 42.41902344 14.5078125 41.66796875 C13.83379395 41.01078857 13.15977539 40.3536084 12.46533203 39.67651367 C11 38 11 38 11 36 C10.46632813 35.8040625 9.93265625 35.608125 9.3828125 35.40625 C5.9098949 33.35665929 3.54226528 30.49175011 0.875 27.5 C-0.18990224 26.32273398 -1.2549983 25.14564325 -2.3203125 23.96875 C-3.20460938 22.9890625 -4.08890625 22.009375 -5 21 C-5.66 20.34 -6.32 19.68 -7 19 C-6.37860975 14.89406474 -4.4970001 11.07819281 -2.9375 7.25 C-2.65583984 6.55261719 -2.37417969 5.85523438 -2.08398438 5.13671875 C-1.39166819 3.42352955 -0.69615002 1.71163491 0 0 Z " fill="#001E53" transform="translate(293,356)"/>
<path d="M0 0 C3.935511 1.9677555 6.04876163 3.7735691 9.15161133 6.8293457 C9.65123383 7.31903839 10.15085632 7.80873108 10.6656189 8.31326294 C12.31001427 9.92853972 13.94660471 11.55142719 15.58203125 13.17578125 C16.72213871 14.3043811 17.86225005 15.43297704 19.00236511 16.56156921 C21.38753954 18.92576312 23.76804649 21.29455712 26.14624023 23.66577148 C29.19741649 26.70594737 32.26671662 29.7271122 35.34065723 32.74424458 C37.70037737 35.06676982 40.04662498 37.40255182 42.38934898 39.74220848 C43.51555924 40.86235782 44.64677887 41.97749366 45.78299904 43.08748817 C47.36825051 44.63871441 48.9335729 46.20767298 50.49536133 47.7824707 C51.8396093 49.11578178 51.8396093 49.11578178 53.21101379 50.47602844 C55 53 55 53 54.82646179 55.68791199 C54.4173632 56.83239555 54.4173632 56.83239555 54 58 C53.7628125 58.72960937 53.525625 59.45921875 53.28125 60.2109375 C52.76207979 61.64903899 52.24125644 63.0865448 51.71875 64.5234375 C50.82395037 67.6066058 50.45401747 70.82187771 50 74 C18.32 74 -13.36 74 -46 74 C-46.99 69.71 -47.98 65.42 -49 61 C-49.99 58.03 -50.98 55.06 -52 52 C-34.84 34.84 -17.68 17.68 0 0 Z " fill="#FEFEFE" transform="translate(340,431)"/>
<path d="M0 0 C1.02125922 1.31712087 2.0243597 2.64873992 3 4 C-1.12267842 8.14758308 -5.24877227 12.2917284 -9.37792969 16.43286133 C-10.77924133 17.83917075 -12.17965036 19.24638022 -13.57910156 20.65454102 C-15.60239038 22.69009656 -17.62901128 24.72228531 -19.65625 26.75390625 C-20.2711731 27.37399063 -20.88609619 27.99407501 -21.51965332 28.63294983 C-25.28210329 32.39587342 -29.1632693 35.96040948 -33.20300293 39.42442322 C-35.9352767 41.82003486 -38.46687257 44.39728116 -41 47 C-44.10130875 50.18650954 -47.24260797 53.23963413 -50.625 56.12890625 C-56.37068036 61.09891976 -61.65380063 66.54723398 -67 71.9375 C-68.07137887 73.01390654 -69.14299182 74.09008014 -70.21484375 75.16601562 C-72.81259638 77.77466745 -75.40717962 80.38644471 -78 83 C-81 82 -81 82 -82.24609375 80.171875 C-90.51575897 63.36140799 -93.06626201 46.11674129 -87.03515625 28.12109375 C-80.73197002 11.50360277 -69.61495438 0.93473274 -53.7734375 -6.3671875 C-36.68403499 -13.89853472 -14.8351262 -11.4556959 0 0 Z " fill="#82B1FE" transform="translate(479,464)"/>
<path d="M0 0 C7.92 0 15.84 0 24 0 C29.89761602 15.0099803 35.50061853 30.11686319 41.04589844 45.26000977 C42.17147617 48.3317614 43.30037774 51.4022751 44.4296875 54.47265625 C44.77442108 55.41722183 45.11915466 56.36178741 45.47433472 57.3349762 C45.79201813 58.19775681 46.10970154 59.06053741 46.43701172 59.94946289 C46.71568085 60.71013565 46.99434998 61.47080841 47.28146362 62.25453186 C47.86727046 63.9955036 47.86727046 63.9955036 49 65 C51.31133484 58.47539029 53.62251417 51.95072552 55.93359375 45.42602539 C56.71708799 43.21409914 57.50061567 41.00218474 58.28417969 38.7902832 C62.86368351 25.86284755 67.43855188 12.93381856 72 0 C79.92 0 87.84 0 96 0 C93.7498985 9.00040601 93.7498985 9.00040601 92.3269043 12.77490234 C92.00820374 13.62668564 91.68950317 14.47846893 91.36114502 15.35606384 C91.01895935 16.25692215 90.67677368 17.15778046 90.32421875 18.0859375 C89.78133209 19.53082298 89.78133209 19.53082298 89.22747803 21.00489807 C88.05191246 24.12995417 86.8699318 27.25253612 85.6875 30.375 C84.87546651 32.5279759 84.06370075 34.68105279 83.25219727 36.83422852 C81.2235197 42.21241574 79.18873414 47.58826543 77.15112305 52.96307373 C76.06519049 55.82801255 74.98062254 58.6934638 73.89648438 61.55908203 C72.36025197 65.61812159 70.82049785 69.67580212 69.27676392 73.73199463 C68.71859394 75.19881198 68.1611157 76.66589274 67.6043396 78.13323975 C66.84190355 80.14069478 66.07588906 82.14674193 65.30859375 84.15234375 C64.88376709 85.26601318 64.45894043 86.37968262 64.02124023 87.52709961 C63 90 63 90 62 91 C60.00035018 91.08758003 57.9976389 91.10696576 55.99609375 91.09765625 C54.17368164 91.09282227 54.17368164 91.09282227 52.31445312 91.08789062 C51.03505859 91.07951172 49.75566406 91.07113281 48.4375 91.0625 C47.15423828 91.05798828 45.87097656 91.05347656 44.54882812 91.04882812 C41.36583978 91.03699545 38.18294238 91.02051068 35 91 C34.69932617 90.21278564 34.39865234 89.42557129 34.08886719 88.61450195 C28.53819687 74.10954735 22.92100911 59.645527 16.9375 45.3125 C13.04843465 35.98734842 9.20925549 26.64599733 5.4927063 17.25082397 C4.76532032 15.41369394 4.03298105 13.57852755 3.30053711 11.7434082 C2.86620361 10.63956787 2.43187012 9.53572754 1.984375 8.3984375 C1.59991211 7.42567871 1.21544922 6.45291992 0.81933594 5.45068359 C0 3 0 3 0 0 Z " fill="#012054" transform="translate(519,747)"/>
<path d="M0 0 C0.63164062 0.41378906 1.26328125 0.82757813 1.9140625 1.25390625 C2.60757813 1.67800781 3.30109375 2.10210937 4.015625 2.5390625 C9.42261284 6.17409739 12.78316716 10.58708323 15.9140625 16.25390625 C16.25566406 16.86878906 16.59726562 17.48367187 16.94921875 18.1171875 C20.17719745 25.12865751 20.07535012 33.81123668 18.15234375 41.16796875 C14.08374077 51.81387851 7.58820276 59.34593643 -2.7734375 64.19140625 C-11.56289155 67.51923728 -19.60898345 67.51923728 -28.3984375 64.19140625 C-37.73110401 59.80825417 -44.47264867 53.36668835 -48.0546875 43.6171875 C-51.20124993 33.17234833 -50.82377913 25.16963672 -46.0859375 15.25390625 C-41.59601701 7.74914001 -35.11151743 1.29185818 -26.9375 -2.05078125 C-18.40324947 -4.13173549 -7.82166582 -4.33362566 0 0 Z " fill="#FDFEFE" transform="translate(462.0859375,135.74609375)"/>
<path d="M0 0 C9.3749776 4.80877846 14.89609027 11.45250125 18.703125 21.23828125 C21.3094498 30.53142126 19.85238002 39.79770061 15.56640625 48.31640625 C10.37692992 57.16001088 3.02877667 62.43743173 -6.640625 65.625 C-15.4153568 67.79720633 -23.87178526 66.243194 -31.81640625 62.0625 C-39.59925672 57.22130318 -45.66490334 50.95225075 -48.7734375 42.21875 C-50.9229504 32.76852466 -50.58929281 22.68568468 -45.43359375 14.31640625 C-34.89350412 -0.63581393 -17.27078171 -7.21501361 0 0 Z " fill="#FDFDFE" transform="translate(250.43359375,481.68359375)"/>
<path d="M0 0 C8.4743619 6.14498418 13.51924004 14.21415827 15.44140625 24.4921875 C16.5912161 33.33578671 14.62521082 41.99482897 9.453125 49.30078125 C2.10313921 57.84402898 -5.22657637 62.68197819 -16.53125 63.78125 C-26.67359999 64.24061746 -35.04300861 61.63146376 -42.99609375 55.2421875 C-50.6014835 47.9688418 -53.59002628 38.95746013 -53.93359375 28.6171875 C-53.82691648 22.32322854 -52.86864327 17.82964236 -49.55859375 12.4921875 C-49.14609375 11.80640625 -48.73359375 11.120625 -48.30859375 10.4140625 C-42.74243194 2.12807163 -34.81962991 -2.90438133 -25.140625 -5.0703125 C-16.03257697 -6.61358236 -7.9898903 -4.70854604 0 0 Z " fill="#FDFDFE" transform="translate(254.55859375,136.5078125)"/>
<path d="M0 0 C7.57262854 5.25876982 12.75321668 12.13559453 15.63671875 20.9453125 C17.52452803 31.62259942 15.34526579 39.90683732 10.25 49.1875 C3.84888992 57.1888876 -3.80920121 62.33269806 -14 64 C-24.24152732 64.95965156 -32.91053447 62.47157243 -41 56 C-48.79485847 48.47924644 -52.78688082 40.17562639 -53.3125 29.375 C-53.16391436 19.37518629 -48.81558323 11.13191832 -42 4 C-31.12250644 -5.84388557 -12.62122037 -7.89945176 0 0 Z " fill="#FDFDFE" transform="translate(254,311)"/>
<path d="M0 0 C31.68 0 63.36 0 96 0 C94.93318175 5.33409126 94.26042792 6.23301665 90.57202148 9.88208008 C90.11345764 10.34122803 89.6548938 10.80037598 89.18243408 11.2734375 C87.67127801 12.78181702 86.14647385 14.27554918 84.62109375 15.76953125 C83.56790063 16.81526046 82.51558986 17.86187901 81.46412659 18.90934753 C78.69947327 21.6587564 75.92301822 24.39593952 73.1439209 27.1307373 C70.3081127 29.92556738 67.48364797 32.73180969 64.65820312 35.53710938 C59.11649942 41.03596318 53.56227659 46.52194897 48 52 C38.97702961 44.48952414 30.79228537 36.09205895 22.47265625 27.82275391 C20.48339819 25.846939 18.4870758 23.87869045 16.484375 21.91650391 C13.59008571 19.08072437 10.71629154 16.22499725 7.84375 13.3671875 C6.49089905 12.04834061 6.49089905 12.04834061 5.11071777 10.70285034 C4.2923645 9.88164703 3.47401123 9.06044373 2.63085938 8.21435547 C1.90362671 7.49520966 1.17639404 6.77606384 0.42712402 6.03512573 C-0.0438269 5.36353424 -0.51477783 4.69194275 -1 4 C-0.67 2.68 -0.34 1.36 0 0 Z " fill="#FEFEFE" transform="translate(294,352)"/>
<path d="M0 0 C1.87631104 0.02114868 1.87631104 0.02114868 3.79052734 0.04272461 C4.73879395 0.06085205 5.68706055 0.07897949 6.6640625 0.09765625 C6.6937915 1.3194458 6.6937915 1.3194458 6.72412109 2.56591797 C7.39339257 31.08968811 7.39339257 31.08968811 12.078125 59.1796875 C12.62713752 61.91376986 12.77702481 64.31981034 12.6640625 67.09765625 C1.97508199 69.92783549 -6.18403922 69.95617182 -16.3359375 65.09765625 C-25.57051245 59.51614745 -31.07490029 51.82286673 -34.0859375 41.53515625 C-35.03435374 32.28809793 -34.19527005 22.56885861 -28.6484375 14.78515625 C-20.63726663 5.31740885 -12.71486758 -0.18632573 0 0 Z " fill="#FDFDFE" transform="translate(446.3359375,305.90234375)"/>
<path d="M0 0 C4.87127864 3.70853625 8.15048919 8.89835595 9.2421875 14.93359375 C9.92495119 25.60037729 10.60083797 36.75131769 3.18359375 45.30859375 C-4.02519605 52.11621987 -10.41863297 53.4611133 -20.20703125 53.31640625 C-27.8711783 52.49012857 -33.87584304 48.83823123 -38.7578125 42.93359375 C-39.31732855 39.96543163 -39.57594149 37.56976778 -39.59765625 34.59765625 C-39.61429825 33.80007904 -39.63094025 33.00250183 -39.64808655 32.18075562 C-39.67332603 30.49825385 -39.68513144 28.81550337 -39.68432617 27.1328125 C-39.69526388 24.56998529 -39.78601962 22.01795086 -39.88085938 19.45703125 C-40.08479484 7.58635762 -40.08479484 7.58635762 -36.62573242 3.27807617 C-34.05227594 1.4391454 -31.67931047 0.13099644 -28.7578125 -1.06640625 C-27.94304443 -1.42379883 -27.12827637 -1.78119141 -26.28881836 -2.14941406 C-17.55164837 -5.7156059 -8.06989012 -4.89573334 0 0 Z " fill="#FDFDFE" transform="translate(482.7578125,768.06640625)"/>
<path d="M0 0 C4.10268546 4.10268546 3.23215252 10.5752122 3.25 16.0625 C3.21241525 33.26977813 -2.26281087 47.01463853 -14.33203125 59.55859375 C-26.11995044 70.34548906 -39.66354169 74.30111141 -55.36328125 74.234375 C-60.49648164 73.9035565 -65.15066247 72.66263001 -70 71 C-65.51720681 61.32354997 -55.97900659 53.82430347 -48.52124023 46.39086914 C-46.56704376 44.4420313 -44.61824853 42.48790728 -42.66992188 40.53320312 C-37.14322467 35.00385874 -31.63745284 29.52214547 -25.67553711 24.45727539 C-22.79980834 21.95614979 -20.16194675 19.22448398 -17.5 16.5 C-13.33266753 12.27953434 -9.12514326 8.19280633 -4.5859375 4.3671875 C-2.97717593 2.98032408 -1.48334641 1.51930632 0 0 Z " fill="#6FA5F8" transform="translate(501,500)"/>
<path d="M0 0 C0.60803467 0.28125732 1.21606934 0.56251465 1.8425293 0.85229492 C4.31989934 2.35595192 5.49273552 3.49533772 7 6 C7.85938086 11.21624982 7.88132167 16.28406056 7.74780273 21.55883789 C7.68757025 24.05958334 7.68623297 26.55527253 7.69335938 29.05664062 C7.67795228 30.65368312 7.65918579 32.25069747 7.63671875 33.84765625 C7.63540451 34.59048355 7.63409027 35.33331085 7.63273621 36.09864807 C7.4768494 41.00078974 6.47167091 43.54411125 3 47 C-3.65904336 51.68554506 -10.77761761 54.70882607 -19 54 C-25.77979698 52.19644236 -31.72744293 49.2231961 -35.75 43.3125 C-40.8487947 34.42649766 -41.4193391 23.62853013 -38.875 13.8125 C-36.60978697 7.18543491 -33.23770643 1.87902376 -26.9375 -1.4375 C-17.64114486 -5.42667319 -8.80649468 -4.96776623 0 0 Z " fill="#FCFCFD" transform="translate(175,768)"/>
<path d="M0 0 C4.14237991 1.90070301 6.96190719 4.70775798 10.12109375 7.92578125 C10.7028688 8.5103862 11.28464386 9.09499115 11.88404846 9.6973114 C13.73995842 11.56438702 15.58880352 13.43828434 17.4375 15.3125 C18.67727058 16.5623092 19.91750025 17.81166318 21.15820312 19.06054688 C23.9549942 21.87724661 26.74948454 24.69614172 29.53244019 27.52651978 C30.50972524 28.50774738 31.49904528 29.47713533 32.50003052 30.43417358 C33.70111662 31.58798051 34.85549379 32.79004801 36 34 C36 34.66 36 35.32 36 36 C37.485 36.495 37.485 36.495 39 37 C40.75390625 38.77734375 40.75390625 38.77734375 42.5625 40.9375 C44.33130568 43.03343963 46.05994888 45.05994888 48 47 C16.98 47 -14.04 47 -46 47 C-39.25 39.125 -39.25 39.125 -35.64697266 35.53344727 C-34.84659576 34.7331459 -34.04621887 33.93284454 -33.22158813 33.10829163 C-32.37760468 32.26946945 -31.53362122 31.43064728 -30.6640625 30.56640625 C-29.78471039 29.68846909 -28.90535828 28.81053192 -27.99935913 27.9059906 C-25.21025942 25.12245588 -22.41768982 22.34243231 -19.625 19.5625 C-17.7247458 17.66783335 -15.82525347 15.7724037 -13.92578125 13.87695312 C-9.28649396 9.24864839 -4.64435833 4.62321579 0 0 Z " fill="#FCFCFD" transform="translate(341,286)"/>
<path d="M0 0 C7.59 0 15.18 0 23 0 C23 30.03 23 60.06 23 91 C15.41 91 7.82 91 0 91 C0 60.97 0 30.94 0 0 Z " fill="#011F53" transform="translate(629,747)"/>
<path d="M0 0 C31.02 0 62.04 0 94 0 C94.495 9.405 94.495 9.405 95 19 C63.32 19 31.64 19 -1 19 C-0.67 12.73 -0.34 6.46 0 0 Z " fill="#002055" transform="translate(295,333)"/>
<path d="M0 0 C31.02 0 62.04 0 94 0 C94.495 8.91 94.495 8.91 95 18 C63.32 18 31.64 18 -1 18 C-0.505 9.09 -0.505 9.09 0 0 Z " fill="#001F54" transform="translate(295,506)"/>
<path d="M0 0 C31.02 0 62.04 0 94 0 C93.67 5.94 93.34 11.88 93 18 C61.98 18 30.96 18 -1 18 C-0.505 9.09 -0.505 9.09 0 0 Z " fill="#002157" transform="translate(295,157)"/>
<path d="M0 0 C5.29641072 3.06232801 9.16567196 7.74464689 12.1875 13 C13.88471689 20.54318619 12.57500619 26.83133031 8.75 33.5 C4.77165986 37.98601695 0.41333365 41.1775475 -5.60546875 41.90625 C-12.94397701 42.08578537 -18.53140436 41.98663551 -24.51171875 37.22265625 C-29.39206486 32.38617842 -31.39472744 27.7088351 -31.5625 20.8125 C-31.49250452 14.37291555 -30.29447344 9.76682262 -25.859375 5.0078125 C-18.44012949 -1.59141113 -9.37787961 -4.10510294 0 0 Z " fill="#002054" transform="translate(652.25,306.5)"/>
<path d="M0 0 C1.36527726 0.95592667 2.70928196 1.94556901 4 3 C-8.63866068 15.81205694 -8.63866068 15.81205694 -14.91015625 21.12890625 C-17.71912111 23.64384862 -20.35088606 26.31852984 -23 29 C-27.49966964 33.54943235 -32.10145094 37.87766642 -37 42 C-38.33390444 43.14516844 -39.66726268 44.29097349 -41 45.4375 C-42.485 46.7059375 -42.485 46.7059375 -44 48 C-48.2279689 38.62493853 -50.04709323 28.73037103 -46.4375 18.75 C-44.14027573 13.69285964 -40.92937398 9.87732929 -37 6 C-36.113125 5.0925 -35.22625 4.185 -34.3125 3.25 C-24.37451858 -4.58878214 -11.1986863 -4.69996679 0 0 Z " fill="#FCFDFE" transform="translate(461,482)"/>
<path d="M0 0 C4.33250462 2.49580388 7.61329834 5.97522002 9.75 10.5 C10.245 14.46 10.245 14.46 10.75 18.5 C-3.11 18.5 -16.97 18.5 -31.25 18.5 C-30.12134657 11.72807941 -27.97632477 6.38337181 -22.40234375 2.0703125 C-15.43349467 -1.98375257 -7.55561452 -3.30467147 0 0 Z " fill="#FAFBFC" transform="translate(374.25,763.5)"/>
<path d="M0 0 C4.70314774 2.95313928 7.26075814 6.78227442 9 12 C9 13.65 9 15.3 9 17 C-4.86 17 -18.72 17 -33 17 C-31.57806617 8.468397 -27.78320563 3.9753809 -21 -1 C-14.25431993 -4.90539372 -6.57899299 -3.54253469 0 0 Z " fill="#FBFCFD" transform="translate(275,765)"/>
<path d="M0 0 C4.60405149 2.99798702 6.71729578 6.09641315 9 11 C9 12.98 9 14.96 9 17 C-4.86 17 -18.72 17 -33 17 C-29.9657814 7.89734419 -27.79208963 2.83975682 -19.625 -2 C-12.35103619 -4.00661071 -6.74328878 -3.63100165 0 0 Z " fill="#FBFCFD" transform="translate(724,765)"/>
<path d="M0 0 C3.19083936 2.80407095 4.84980852 5.49558527 5.53125 9.71484375 C5.62605465 18.92274563 5.62605465 18.92274563 2.875 22.4375 C-0.98581496 25.69774374 -3.37667021 26.64222766 -8.375 27.1875 C-13.33416879 26.66548223 -16.2245191 24.65975256 -19.58203125 21.0390625 C-22.20397606 16.73212146 -21.52877019 11.67261101 -20.9375 6.8125 C-19.74096255 3.59718911 -18.0736991 1.51263122 -15.10546875 -0.31640625 C-10.2827397 -2.25418747 -4.75548111 -1.92242854 0 0 Z " fill="#021E52" transform="translate(648.9375,709.1875)"/>
<path d="M0 0 C7.59 0 15.18 0 23 0 C22.67 2.97 22.34 5.94 22 9 C21.67 9 21.34 9 21 9 C21 6.69 21 4.38 21 2 C14.73 2 8.46 2 2 2 C2 43.25 2 84.5 2 127 C8.93 127 15.86 127 23 127 C23 113.14 23 99.28 23 85 C23.33 85 23.66 85 24 85 C24 99.19 24 113.38 24 128 C16.08 128 8.16 128 0 128 C0 85.76 0 43.52 0 0 Z " fill="#192651" transform="translate(422,747)"/>
<path d="M0 0 C31.02 0 62.04 0 94 0 C93.67 5.94 93.34 11.88 93 18 C62.64 18 32.28 18 1 18 C1 17.67 1 17.34 1 17 C31.03 17 61.06 17 92 17 C92 12.05 92 7.1 92 2 C61.64 2 31.28 2 0 2 C0 1.34 0 0.68 0 0 Z " fill="#000A39" transform="translate(295,157)"/>
<path d="M0 0 C31.02 0 62.04 0 94 0 C93.67 3.63 93.34 7.26 93 11 C92.67 11 92.34 11 92 11 C92 8.03 92 5.06 92 2 C47.45 2.495 47.45 2.495 2 3 C2 5.97 2 8.94 2 12 C1.67 12 1.34 12 1 12 C0.67 8.04 0.34 4.08 0 0 Z " fill="#071A4E" transform="translate(295,333)"/>
<path d="M0 0 C1 2 1 2 0.46875 4.1015625 C-3.12349371 13.45877796 -8.68896245 20.78786397 -18 25 C-20.97526452 25.88516437 -23.93383789 26.52446097 -27 27 C-19.22651124 17.4990693 -10.3609378 8.92473913 -1 1 C-0.67 0.67 -0.34 0.34 0 0 Z " fill="#F4F7FB" transform="translate(478,522)"/>
<path d="M0 0 C0.33 0 0.66 0 1 0 C1.99 6.93 1.99 6.93 3 14 C-28.02 14 -59.04 14 -91 14 C-91 13.67 -91 13.34 -91 13 C-45.955 12.505 -45.955 12.505 0 12 C0 8.04 0 4.08 0 0 Z " fill="#000537" transform="translate(387,510)"/>
<path d="M0 0 C32.67 0.495 32.67 0.495 66 1 C66 1.33 66 1.66 66 2 C65.20264435 2.01030746 64.4052887 2.02061493 63.58377075 2.03123474 C56.0790848 2.12910568 48.57448326 2.23160513 41.06993294 2.33933926 C37.21152754 2.39456566 33.35311456 2.44798519 29.49462891 2.49731445 C25.77281878 2.54496221 22.05110191 2.59730514 18.32940292 2.65294075 C16.90762522 2.67336245 15.48582194 2.69207585 14.06399918 2.70907402 C12.07662369 2.73312181 10.08933095 2.76373998 8.10205078 2.79467773 C6.40328293 2.81799416 6.40328293 2.81799416 4.67019653 2.84178162 C2.02672207 2.82267002 2.02672207 2.82267002 0 4 C0 2.68 0 1.36 0 0 Z " fill="#F3F6F9" transform="translate(690,798)"/>
<path d="M0 0 C7.92 0 15.84 0 24 0 C23.34 1.65 22.68 3.3 22 5 C21.67 4.34 21.34 3.68 21 3 C14.4 2.67 7.8 2.34 1 2 C0.67 3.98 0.34 5.96 0 8 C-0.33 8 -0.66 8 -1 8 C-0.67 5.36 -0.34 2.72 0 0 Z " fill="#1D2C57" transform="translate(879,747)"/>
<path d="M0 0 C7.92 0 15.84 0 24 0 C23.34 1.32 22.68 2.64 22 4 C22 3.34 22 2.68 22 2 C15.07 2 8.14 2 1 2 C0.67 2.66 0.34 3.32 0 4 C0 2.68 0 1.36 0 0 Z " fill="#1C2B57" transform="translate(591,747)"/>
<path d="M0 0 C0 3 0 3 -1.4609375 4.82421875 C-2.09257812 5.43910156 -2.72421875 6.05398438 -3.375 6.6875 C-4.00148438 7.31011719 -4.62796875 7.93273437 -5.2734375 8.57421875 C-7 10 -7 10 -9 10 C-9.24492187 10.58265625 -9.48984375 11.1653125 -9.7421875 11.765625 C-11.20435874 14.36302236 -12.84740414 15.83975831 -15.125 17.75 C-16.21167969 18.67039062 -16.21167969 18.67039062 -17.3203125 19.609375 C-17.87460937 20.06828125 -18.42890625 20.5271875 -19 21 C-19 18 -19 18 -17.3125 15.984375 C-16.549375 15.24703125 -15.78625 14.5096875 -15 13.75 C-14.18402344 12.95980469 -13.36804688 12.16960938 -12.52734375 11.35546875 C-9.6150579 8.64123634 -6.65528533 5.99633474 -3.62890625 3.41015625 C-2.37392427 2.32370902 -1.17374345 1.17374345 0 0 Z " fill="#7BB5F7" transform="translate(500,501)"/>
<path d="M0 0 C2.375 0.6875 2.375 0.6875 5 2 C5.70211894 3.65204456 6.36971413 5.31923769 7 7 C8.93330603 8.09166275 8.93330603 8.09166275 11 9 C12.75 11.125 12.75 11.125 14 13 C11 13 11 13 8.3125 10.625 C6 8 6 8 6 6 C5.38125 5.7525 4.7625 5.505 4.125 5.25 C1.64931313 3.79371361 1.04874998 2.62187494 0 0 Z " fill="#1F325C" transform="translate(298,386)"/>
<path d="M0 0 C0.87454834 0.00523682 1.74909668 0.01047363 2.65014648 0.01586914 C3.59438477 0.0190918 4.53862305 0.02231445 5.51147461 0.02563477 C6.50469727 0.03401367 7.49791992 0.04239258 8.52124023 0.05102539 C9.51833008 0.05553711 10.51541992 0.06004883 11.54272461 0.06469727 C14.01478872 0.07652532 16.48673541 0.0930069 18.95874023 0.11352539 C19.28874023 1.43352539 19.61874023 2.75352539 19.95874023 4.11352539 C18.96874023 4.11352539 17.97874023 4.11352539 16.95874023 4.11352539 C16.62874023 3.45352539 16.29874023 2.79352539 15.95874023 2.11352539 C10.34874023 1.78352539 4.73874023 1.45352539 -1.04125977 1.11352539 C-1.37125977 2.10352539 -1.70125977 3.09352539 -2.04125977 4.11352539 C-2.70125977 3.78352539 -3.36125977 3.45352539 -4.04125977 3.11352539 C-2.5555613 0.14212845 -2.5555613 0.14212845 0 0 Z " fill="#07295E" transform="translate(594.041259765625,748.886474609375)"/>
<path d="M0 0 C0 3.29494761 -0.24879502 5.19101002 -2.5234375 7.640625 C-3.43996094 8.43726563 -3.43996094 8.43726563 -4.375 9.25 C-4.98085938 9.79140625 -5.58671875 10.3328125 -6.2109375 10.890625 C-6.80132812 11.25671875 -7.39171875 11.6228125 -8 12 C-8.99 11.67 -9.98 11.34 -11 11 C-7.37 7.37 -3.74 3.74 0 0 Z " fill="#20305B" transform="translate(430,517)"/>
<path d="M0 0 C0.33 0 0.66 0 1 0 C1.27698721 2.56213169 1.52215772 5.12092369 1.75 7.6875 C1.83121094 8.40873047 1.91242188 9.12996094 1.99609375 9.87304688 C2.46884033 15.62479689 1.92499634 16.09375458 -2 21 C-1.01 10.605 -1.01 10.605 0 0 Z " fill="#5997F7" transform="translate(481,160)"/>
<path d="M0 0 C0.83984375 1.640625 0.83984375 1.640625 1 4 C-0.75836408 6.1302685 -2.42424794 7.8949842 -4.4375 9.75 C-4.96666016 10.25660156 -5.49582031 10.76320312 -6.04101562 11.28515625 C-7.34977101 12.53495869 -8.67351959 13.76902618 -10 15 C-10.66 14.67 -11.32 14.34 -12 14 C-11.20335937 13.23816406 -11.20335937 13.23816406 -10.390625 12.4609375 C-6.36535478 8.53850265 -2.89400247 4.82333745 0 0 Z " fill="#1771FE" transform="translate(267,180)"/>
<path d="M0 0 C1.76853925 3.5370785 0.19263965 7.37837175 -1 11 C-3.125 14.0625 -3.125 14.0625 -5 16 C-4.49228528 10.03435204 -2.61407872 5.36190101 0 0 Z " fill="#0C1644" transform="translate(578,786)"/>
<path d="M0 0 C1.32 0.33 2.64 0.66 4 1 C1.03 4.96 1.03 4.96 -2 9 C-2.66 8.01 -3.32 7.02 -4 6 C-2.68 4.02 -1.36 2.04 0 0 Z " fill="#F3F6FA" transform="translate(496,198)"/>
<path d="M0 0 C0.33 0 0.66 0 1 0 C1 4.62 1 9.24 1 14 C0.01 14 -0.98 14 -2 14 C-2 12.02 -2 10.04 -2 8 C-1.67 8 -1.34 8 -1 8 C-0.67 5.36 -0.34 2.72 0 0 Z " fill="#0B295E" transform="translate(803,325)"/>
<path d="M0 0 C0.66 0.66 1.32 1.32 2 2 C-1.465 4.97 -1.465 4.97 -5 8 C-5.66 7.67 -6.32 7.34 -7 7 C-4.69 4.69 -2.38 2.38 0 0 Z " fill="#162757" transform="translate(369,579)"/>
<path d="M0 0 C3.68006822 3.38168431 5.9785845 6.42521756 8 11 C7.01 11.495 7.01 11.495 6 12 C5.566875 11.0925 5.13375 10.185 4.6875 9.25 C3.15019164 6.07225128 3.15019164 6.07225128 1.3125 3.75 C0 2 0 2 0 0 Z " fill="#2F8CF0" transform="translate(280,474)"/>
<path d="M0 0 C0.66 0.33 1.32 0.66 2 1 C-0.97 4.96 -0.97 4.96 -4 9 C-4.66 8.01 -5.32 7.02 -6 6 C-4.02 4.02 -2.04 2.04 0 0 Z " fill="#ECF0F5" transform="translate(491,207)"/>
<path d="M0 0 C2.97 0 5.94 0 9 0 C8.67 0.99 8.34 1.98 8 3 C5.03 2.67 2.06 2.34 -1 2 C-0.67 1.34 -0.34 0.68 0 0 Z " fill="#0A275D" transform="translate(656,512)"/>
<path d="M0 0 C0 3 0 3 -2.3125 5.6875 C-5 8 -5 8 -8 8 C-5.36 5.36 -2.72 2.72 0 0 Z " fill="#233161" transform="translate(404,543)"/>
<path d="M0 0 C6.4 0.49230769 6.4 0.49230769 9.4375 3.0625 C10.2109375 4.0215625 10.2109375 4.0215625 11 5 C6.62886504 4.49172849 3.61004338 3.54826592 0 1 C0 0.67 0 0.34 0 0 Z " fill="#146EFE" transform="translate(579,408)"/>
<path d="M0 0 C0.66 0 1.32 0 2 0 C2 0.66 2 1.32 2 2 C3.32 2.33 4.64 2.66 6 3 C6.33 4.65 6.66 6.3 7 8 C6.67 7.34 6.34 6.68 6 6 C5.0409375 5.566875 5.0409375 5.566875 4.0625 5.125 C1.57998766 3.77090236 1.03128603 2.57821507 0 0 Z " fill="#1D2E57" transform="translate(371,314)"/>
<path d="M0 0 C3.36720387 1.39332574 4.9859524 2.9789286 7 6 C6.01 6.33 5.02 6.66 4 7 C0 2.25 0 2.25 0 0 Z " fill="#1F315B" transform="translate(324,242)"/>
<path d="M0 0 C2.475 0.99 2.475 0.99 5 2 C5 3.32 5 4.64 5 6 C3.2925002 4.71937515 1.62626404 3.38232443 0 2 C0 1.34 0 0.68 0 0 Z " fill="#112655" transform="translate(321,409)"/>
<path d="M0 0 C0.66 0.33 1.32 0.66 2 1 C2.1875 3.8125 2.1875 3.8125 2 7 C0.48828125 8.69921875 0.48828125 8.69921875 -1 10 C-1.02689216 8.52093108 -1.04634621 7.04172517 -1.0625 5.5625 C-1.07410156 4.73878906 -1.08570313 3.91507812 -1.09765625 3.06640625 C-1 1 -1 1 0 0 Z " fill="#0E2E62" transform="translate(831,334)"/>
<path d="M0 0 C6.64615385 1.47692308 6.64615385 1.47692308 8.4375 4.125 C8.7159375 5.053125 8.7159375 5.053125 9 6 C5.06326356 4.68775452 2.77280706 3.08089673 0 0 Z " fill="#609BF7" transform="translate(460,134)"/>
</svg>
